<svg width="422" height="49" viewBox="0 0 422 49" fill="none" xmlns="http://www.w3.org/2000/svg">
<rect x="0.5" y="1" width="421" height="47" rx="9.5" fill="white"/>
<rect x="0.5" y="1" width="421" height="47" rx="9.5" stroke="#D1D1D1"/>
<path d="M22.7614 31.5V16.9545H31.5398V18.517H24.5227V23.4318H31.0852V24.9943H24.5227V29.9375H31.6534V31.5H22.7614ZM34.4872 31.5V20.5909H36.1065V22.2955H36.2486C36.4759 21.7131 36.8428 21.2609 37.3494 20.9389C37.8561 20.6122 38.4645 20.4489 39.1747 20.4489C39.8944 20.4489 40.4934 20.6122 40.9716 20.9389C41.4545 21.2609 41.831 21.7131 42.1009 22.2955H42.2145C42.4938 21.732 42.9129 21.2846 43.4716 20.9531C44.0303 20.617 44.7003 20.4489 45.4815 20.4489C46.4569 20.4489 47.2547 20.7543 47.875 21.3651C48.4953 21.9711 48.8054 22.9157 48.8054 24.1989V31.5H47.1293V24.1989C47.1293 23.3939 46.9091 22.8187 46.4688 22.473C46.0284 22.1274 45.5099 21.9545 44.9134 21.9545C44.1463 21.9545 43.5521 22.1866 43.1307 22.6506C42.7093 23.1098 42.4986 23.6922 42.4986 24.3977V31.5H40.794V24.0284C40.794 23.4081 40.5928 22.9086 40.1903 22.5298C39.7879 22.1463 39.2694 21.9545 38.6349 21.9545C38.1993 21.9545 37.7921 22.0705 37.4134 22.3026C37.0393 22.5346 36.7363 22.8565 36.5043 23.2685C36.277 23.6757 36.1634 24.1468 36.1634 24.6818V31.5H34.4872ZM55.0803 31.7557C54.389 31.7557 53.7616 31.6255 53.1982 31.3651C52.6347 31.0999 52.1873 30.7188 51.8558 30.2216C51.5244 29.7197 51.3587 29.1136 51.3587 28.4034C51.3587 27.7784 51.4818 27.2718 51.728 26.8835C51.9742 26.4905 52.3033 26.1828 52.7152 25.9602C53.1271 25.7377 53.5817 25.572 54.0788 25.4631C54.5807 25.3494 55.085 25.2595 55.5916 25.1932C56.2545 25.108 56.7919 25.044 57.2038 25.0014C57.6205 24.9541 57.9235 24.8759 58.1129 24.767C58.3071 24.6581 58.4041 24.4687 58.4041 24.1989V24.142C58.4041 23.4413 58.2124 22.8968 57.8288 22.5085C57.45 22.1203 56.8748 21.9261 56.103 21.9261C55.3028 21.9261 54.6754 22.1013 54.2209 22.4517C53.7663 22.8021 53.4467 23.1761 53.2621 23.5739L51.6712 23.0057C51.9553 22.3428 52.334 21.8267 52.8075 21.4574C53.2857 21.0833 53.8066 20.8229 54.37 20.6761C54.9382 20.5246 55.4969 20.4489 56.0462 20.4489C56.3965 20.4489 56.799 20.4915 57.2536 20.5767C57.7128 20.6572 58.1555 20.8253 58.5817 21.081C59.0125 21.3366 59.37 21.7225 59.6541 22.2386C59.9382 22.7547 60.0803 23.446 60.0803 24.3125V31.5H58.4041V30.0227H58.3189C58.2053 30.2595 58.0159 30.5128 57.7507 30.7827C57.4856 31.0526 57.1328 31.2822 56.6925 31.4716C56.2521 31.661 55.7147 31.7557 55.0803 31.7557ZM55.3359 30.25C55.9988 30.25 56.5575 30.1198 57.0121 29.8594C57.4714 29.599 57.817 29.2628 58.049 28.8509C58.2857 28.4389 58.4041 28.0057 58.4041 27.5511V26.017C58.3331 26.1023 58.1768 26.1804 57.9354 26.2514C57.6986 26.3177 57.424 26.3769 57.1115 26.429C56.8037 26.4763 56.5031 26.5189 56.2095 26.5568C55.9207 26.59 55.6863 26.6184 55.5064 26.642C55.0708 26.6989 54.6636 26.7912 54.2848 26.919C53.9107 27.0421 53.6077 27.2292 53.3757 27.4801C53.1484 27.7263 53.0348 28.0625 53.0348 28.4886C53.0348 29.071 53.2502 29.5114 53.6811 29.8097C54.1167 30.1032 54.6683 30.25 55.3359 30.25ZM63.1396 31.5V20.5909H64.8157V31.5H63.1396ZM63.9918 18.7727C63.6651 18.7727 63.3834 18.6615 63.1467 18.4389C62.9147 18.2164 62.7987 17.9489 62.7987 17.6364C62.7987 17.3239 62.9147 17.0563 63.1467 16.8338C63.3834 16.6113 63.6651 16.5 63.9918 16.5C64.3185 16.5 64.5979 16.6113 64.8299 16.8338C65.0666 17.0563 65.185 17.3239 65.185 17.6364C65.185 17.9489 65.0666 18.2164 64.8299 18.4389C64.5979 18.6615 64.3185 18.7727 63.9918 18.7727ZM69.5618 16.9545V31.5H67.8857V16.9545H69.5618Z" fill="#D1D1D1"/>
<mask id="mask0_205258_5076" style="mask-type:alpha" maskUnits="userSpaceOnUse" x="377" y="12" width="24" height="25">
<rect x="377" y="12.5" width="24" height="24" fill="#D9D9D9"/>
</mask>
<g mask="url(#mask0_205258_5076)">
<path d="M381 32.5C380.45 32.5 379.979 32.3042 379.588 31.9125C379.196 31.5208 379 31.05 379 30.5V18.5C379 17.95 379.196 17.4792 379.588 17.0875C379.979 16.6958 380.45 16.5 381 16.5H397C397.55 16.5 398.021 16.6958 398.413 17.0875C398.804 17.4792 399 17.95 399 18.5V30.5C399 31.05 398.804 31.5208 398.413 31.9125C398.021 32.3042 397.55 32.5 397 32.5H381ZM397 20.5L389.525 25.175C389.442 25.225 389.354 25.2625 389.262 25.2875C389.171 25.3125 389.083 25.325 389 25.325C388.917 25.325 388.829 25.3125 388.738 25.2875C388.646 25.2625 388.558 25.225 388.475 25.175L381 20.5V30.5H397V20.5ZM389 23.5L397 18.5H381L389 23.5ZM381 20.75V19.275V19.3V19.2875V20.75Z" fill="#A8A8A8"/>
</g>
</svg>
