<svg width="422" height="49" viewBox="0 0 422 49" fill="none" xmlns="http://www.w3.org/2000/svg">
<rect x="0.5" y="1" width="421" height="47" rx="9.5" fill="white"/>
<rect x="0.5" y="1" width="421" height="47" rx="9.5" stroke="#D1D1D1"/>
<path d="M22.7614 31.5V16.9545H27.6761C28.8172 16.9545 29.75 17.1605 30.4744 17.5724C31.2036 17.9796 31.7434 18.5312 32.0938 19.2273C32.4441 19.9233 32.6193 20.6998 32.6193 21.5568C32.6193 22.4138 32.4441 23.1927 32.0938 23.8935C31.7481 24.5942 31.2131 25.1529 30.4886 25.5696C29.7642 25.9815 28.8362 26.1875 27.7045 26.1875H24.1818V24.625H27.6477C28.429 24.625 29.0563 24.4901 29.5298 24.2202C30.0033 23.9503 30.3466 23.5857 30.5597 23.1264C30.7775 22.6624 30.8864 22.1392 30.8864 21.5568C30.8864 20.9744 30.7775 20.4536 30.5597 19.9943C30.3466 19.535 30.0009 19.1752 29.5227 18.9148C29.0445 18.6496 28.41 18.517 27.6193 18.517H24.5227V31.5H22.7614ZM38.4396 31.7557C37.7483 31.7557 37.121 31.6255 36.5575 31.3651C35.9941 31.0999 35.5466 30.7188 35.2152 30.2216C34.8838 29.7197 34.718 29.1136 34.718 28.4034C34.718 27.7784 34.8411 27.2718 35.0874 26.8835C35.3336 26.4905 35.6626 26.1828 36.0746 25.9602C36.4865 25.7377 36.9411 25.572 37.4382 25.4631C37.9401 25.3494 38.4444 25.2595 38.951 25.1932C39.6139 25.108 40.1513 25.044 40.5632 25.0014C40.9799 24.9541 41.2829 24.8759 41.4723 24.767C41.6664 24.6581 41.7635 24.4687 41.7635 24.1989V24.142C41.7635 23.4413 41.5717 22.8968 41.1882 22.5085C40.8094 22.1203 40.2341 21.9261 39.4624 21.9261C38.6622 21.9261 38.0348 22.1013 37.5803 22.4517C37.1257 22.8021 36.8061 23.1761 36.6214 23.5739L35.0305 23.0057C35.3146 22.3428 35.6934 21.8267 36.1669 21.4574C36.6451 21.0833 37.166 20.8229 37.7294 20.6761C38.2976 20.5246 38.8563 20.4489 39.4055 20.4489C39.7559 20.4489 40.1584 20.4915 40.6129 20.5767C41.0722 20.6572 41.5149 20.8253 41.9411 21.081C42.3719 21.3366 42.7294 21.7225 43.0135 22.2386C43.2976 22.7547 43.4396 23.446 43.4396 24.3125V31.5H41.7635V30.0227H41.6783C41.5646 30.2595 41.3752 30.5128 41.1101 30.7827C40.8449 31.0526 40.4922 31.2822 40.0518 31.4716C39.6115 31.661 39.0741 31.7557 38.4396 31.7557ZM38.6953 30.25C39.3582 30.25 39.9169 30.1198 40.3714 29.8594C40.8307 29.599 41.1764 29.2628 41.4084 28.8509C41.6451 28.4389 41.7635 28.0057 41.7635 27.5511V26.017C41.6925 26.1023 41.5362 26.1804 41.2947 26.2514C41.058 26.3177 40.7834 26.3769 40.4709 26.429C40.1631 26.4763 39.8625 26.5189 39.5689 26.5568C39.2801 26.59 39.0457 26.6184 38.8658 26.642C38.4302 26.6989 38.023 26.7912 37.6442 26.919C37.2701 27.0421 36.9671 27.2292 36.7351 27.4801C36.5078 27.7263 36.3942 28.0625 36.3942 28.4886C36.3942 29.071 36.6096 29.5114 37.0405 29.8097C37.4761 30.1032 38.0277 30.25 38.6953 30.25ZM54.2262 23.0341L52.7205 23.4602C52.6258 23.2093 52.4862 22.9654 52.3015 22.7287C52.1216 22.4872 51.8754 22.2884 51.5629 22.1321C51.2504 21.9759 50.8503 21.8977 50.3626 21.8977C49.695 21.8977 49.1386 22.0516 48.6935 22.3594C48.2532 22.6624 48.033 23.0483 48.033 23.517C48.033 23.9337 48.1845 24.2628 48.4876 24.5043C48.7906 24.7457 49.2641 24.947 49.908 25.108L51.5273 25.5057C52.5027 25.7424 53.2295 26.1046 53.7077 26.5923C54.186 27.0753 54.4251 27.6979 54.4251 28.4602C54.4251 29.0852 54.2451 29.6439 53.8853 30.1364C53.5302 30.6288 53.033 31.017 52.3938 31.3011C51.7546 31.5852 51.0112 31.7273 50.1637 31.7273C49.051 31.7273 48.1301 31.4858 47.4009 31.0028C46.6718 30.5199 46.2101 29.8144 46.016 28.8864L47.6069 28.4886C47.7584 29.0758 48.0449 29.5161 48.4663 29.8097C48.8924 30.1032 49.4487 30.25 50.1353 30.25C50.9165 30.25 51.5368 30.0843 51.9961 29.7528C52.4601 29.4167 52.6921 29.0142 52.6921 28.5455C52.6921 28.1667 52.5595 27.8494 52.2944 27.5938C52.0292 27.3333 51.622 27.1392 51.0728 27.0114L49.2546 26.5852C48.2556 26.3485 47.5217 25.9815 47.0529 25.4844C46.5889 24.9825 46.3569 24.3551 46.3569 23.6023C46.3569 22.9867 46.5297 22.4422 46.8754 21.9688C47.2257 21.4953 47.7016 21.1236 48.3029 20.8537C48.909 20.5838 49.5955 20.4489 50.3626 20.4489C51.4421 20.4489 52.2897 20.6856 52.9052 21.1591C53.5254 21.6326 53.9658 22.2576 54.2262 23.0341ZM64.6754 23.0341L63.1697 23.4602C63.075 23.2093 62.9354 22.9654 62.7507 22.7287C62.5708 22.4872 62.3246 22.2884 62.0121 22.1321C61.6996 21.9759 61.2995 21.8977 60.8118 21.8977C60.1442 21.8977 59.5878 22.0516 59.1428 22.3594C58.7024 22.6624 58.4822 23.0483 58.4822 23.517C58.4822 23.9337 58.6338 24.2628 58.9368 24.5043C59.2398 24.7457 59.7133 24.947 60.3572 25.108L61.9766 25.5057C62.9519 25.7424 63.6787 26.1046 64.157 26.5923C64.6352 27.0753 64.8743 27.6979 64.8743 28.4602C64.8743 29.0852 64.6944 29.6439 64.3345 30.1364C63.9794 30.6288 63.4822 31.017 62.843 31.3011C62.2038 31.5852 61.4605 31.7273 60.6129 31.7273C59.5002 31.7273 58.5793 31.4858 57.8501 31.0028C57.121 30.5199 56.6593 29.8144 56.4652 28.8864L58.0561 28.4886C58.2076 29.0758 58.4941 29.5161 58.9155 29.8097C59.3416 30.1032 59.898 30.25 60.5845 30.25C61.3658 30.25 61.986 30.0843 62.4453 29.7528C62.9093 29.4167 63.1413 29.0142 63.1413 28.5455C63.1413 28.1667 63.0088 27.8494 62.7436 27.5938C62.4785 27.3333 62.0713 27.1392 61.522 27.0114L59.7038 26.5852C58.7048 26.3485 57.9709 25.9815 57.5021 25.4844C57.0381 24.9825 56.8061 24.3551 56.8061 23.6023C56.8061 22.9867 56.9789 22.4422 57.3246 21.9688C57.675 21.4953 58.1508 21.1236 58.7521 20.8537C59.3582 20.5838 60.0447 20.4489 60.8118 20.4489C61.8913 20.4489 62.7389 20.6856 63.3544 21.1591C63.9747 21.6326 64.415 22.2576 64.6754 23.0341ZM69.869 31.5L66.5451 20.5909H68.3065L70.6644 28.9432H70.7781L73.1076 20.5909H74.8974L77.1985 28.9148H77.3121L79.6701 20.5909H81.4315L78.1076 31.5H76.4599L74.0735 23.1193H73.9031L71.5167 31.5H69.869ZM87.7081 31.7273C86.7232 31.7273 85.8591 31.4929 85.1158 31.0241C84.3771 30.5554 83.7995 29.8996 83.3828 29.0568C82.9709 28.214 82.7649 27.2292 82.7649 26.1023C82.7649 24.9659 82.9709 23.974 83.3828 23.1264C83.7995 22.2789 84.3771 21.6207 85.1158 21.152C85.8591 20.6832 86.7232 20.4489 87.7081 20.4489C88.6929 20.4489 89.5547 20.6832 90.2933 21.152C91.0367 21.6207 91.6143 22.2789 92.0263 23.1264C92.4429 23.974 92.6513 24.9659 92.6513 26.1023C92.6513 27.2292 92.4429 28.214 92.0263 29.0568C91.6143 29.8996 91.0367 30.5554 90.2933 31.0241C89.5547 31.4929 88.6929 31.7273 87.7081 31.7273ZM87.7081 30.2216C88.4562 30.2216 89.0717 30.0298 89.5547 29.6463C90.0376 29.2628 90.3951 28.7585 90.6271 28.1335C90.8591 27.5085 90.9751 26.8314 90.9751 26.1023C90.9751 25.3731 90.8591 24.6937 90.6271 24.0639C90.3951 23.4342 90.0376 22.9252 89.5547 22.5369C89.0717 22.1487 88.4562 21.9545 87.7081 21.9545C86.96 21.9545 86.3445 22.1487 85.8615 22.5369C85.3786 22.9252 85.0211 23.4342 84.7891 24.0639C84.5571 24.6937 84.4411 25.3731 84.4411 26.1023C84.4411 26.8314 84.5571 27.5085 84.7891 28.1335C85.0211 28.7585 85.3786 29.2628 85.8615 29.6463C86.3445 30.0298 86.96 30.2216 87.7081 30.2216ZM95.2099 31.5V20.5909H96.8292V22.2386H96.9428C97.1417 21.6989 97.5015 21.2609 98.0224 20.9247C98.5432 20.5885 99.1303 20.4205 99.7837 20.4205C99.9068 20.4205 100.061 20.4228 100.245 20.4276C100.43 20.4323 100.57 20.4394 100.664 20.4489V22.1534C100.608 22.1392 100.477 22.1179 100.274 22.0895C100.075 22.0563 99.8642 22.0398 99.6417 22.0398C99.1114 22.0398 98.6379 22.151 98.2212 22.3736C97.8093 22.5914 97.4826 22.8944 97.2411 23.2827C97.0044 23.6662 96.886 24.1042 96.886 24.5966V31.5H95.2099ZM106.439 31.7273C105.529 31.7273 104.727 31.4976 104.031 31.0384C103.335 30.5743 102.79 29.9209 102.397 29.0781C102.004 28.2306 101.808 27.2292 101.808 26.0739C101.808 24.928 102.004 23.9337 102.397 23.0909C102.79 22.2481 103.337 21.5971 104.038 21.1378C104.739 20.6785 105.548 20.4489 106.467 20.4489C107.177 20.4489 107.738 20.5672 108.15 20.804C108.567 21.036 108.884 21.3011 109.102 21.5994C109.324 21.893 109.497 22.1345 109.62 22.3239H109.762V16.9545H111.439V31.5H109.819V29.8239H109.62C109.497 30.0227 109.322 30.2737 109.095 30.5767C108.868 30.875 108.543 31.1425 108.122 31.3793C107.7 31.6113 107.139 31.7273 106.439 31.7273ZM106.666 30.2216C107.338 30.2216 107.906 30.0464 108.37 29.696C108.834 29.3409 109.187 28.8509 109.429 28.2259C109.67 27.5961 109.791 26.8693 109.791 26.0455C109.791 25.2311 109.672 24.5185 109.436 23.9077C109.199 23.2921 108.849 22.8139 108.385 22.473C107.921 22.1274 107.348 21.9545 106.666 21.9545C105.956 21.9545 105.364 22.1368 104.89 22.5014C104.422 22.8613 104.069 23.3513 103.832 23.9716C103.6 24.5871 103.484 25.2784 103.484 26.0455C103.484 26.822 103.602 27.5275 103.839 28.1619C104.081 28.7917 104.436 29.2936 104.904 29.6676C105.378 30.0369 105.965 30.2216 106.666 30.2216Z" fill="#D1D1D1"/>
<mask id="mask0_205258_5084" style="mask-type:alpha" maskUnits="userSpaceOnUse" x="377" y="12" width="24" height="25">
<rect x="377" y="12.5" width="24" height="24" fill="#D9D9D9"/>
</mask>
<g mask="url(#mask0_205258_5084)">
<path d="M383 34.5C382.45 34.5 381.979 34.3042 381.588 33.9125C381.196 33.5208 381 33.05 381 32.5V22.5C381 21.95 381.196 21.4792 381.588 21.0875C381.979 20.6958 382.45 20.5 383 20.5H384V18.5C384 17.1167 384.488 15.9375 385.463 14.9625C386.438 13.9875 387.617 13.5 389 13.5C390.383 13.5 391.562 13.9875 392.538 14.9625C393.513 15.9375 394 17.1167 394 18.5V20.5H395C395.55 20.5 396.021 20.6958 396.413 21.0875C396.804 21.4792 397 21.95 397 22.5V32.5C397 33.05 396.804 33.5208 396.413 33.9125C396.021 34.3042 395.55 34.5 395 34.5H383ZM383 32.5H395V22.5H383V32.5ZM389 29.5C389.55 29.5 390.021 29.3042 390.413 28.9125C390.804 28.5208 391 28.05 391 27.5C391 26.95 390.804 26.4792 390.413 26.0875C390.021 25.6958 389.55 25.5 389 25.5C388.45 25.5 387.979 25.6958 387.588 26.0875C387.196 26.4792 387 26.95 387 27.5C387 28.05 387.196 28.5208 387.588 28.9125C387.979 29.3042 388.45 29.5 389 29.5ZM386 20.5H392V18.5C392 17.6667 391.708 16.9583 391.125 16.375C390.542 15.7917 389.833 15.5 389 15.5C388.167 15.5 387.458 15.7917 386.875 16.375C386.292 16.9583 386 17.6667 386 18.5V20.5Z" fill="#A8A8A8"/>
</g>
</svg>
