<svg width="316" height="91" viewBox="0 0 316 91" fill="none" xmlns="http://www.w3.org/2000/svg">
<path d="M72.2025 59.5V15.1364H81.5821V51.7667H100.601V59.5H72.2025ZM121.673 60.1499C118.308 60.1499 115.398 59.435 112.943 58.0053C110.503 56.5612 108.618 54.5539 107.289 51.9833C105.961 49.3983 105.297 46.4018 105.297 42.9936C105.297 39.5566 105.961 36.5528 107.289 33.9822C108.618 31.3973 110.503 29.3899 112.943 27.9602C115.398 26.5161 118.308 25.794 121.673 25.794C125.038 25.794 127.94 26.5161 130.381 27.9602C132.836 29.3899 134.728 31.3973 136.056 33.9822C137.385 36.5528 138.049 39.5566 138.049 42.9936C138.049 46.4018 137.385 49.3983 136.056 51.9833C134.728 54.5539 132.836 56.5612 130.381 58.0053C127.94 59.435 125.038 60.1499 121.673 60.1499ZM121.716 53.0014C123.247 53.0014 124.525 52.5682 125.55 51.7017C126.576 50.8208 127.348 49.6222 127.868 48.1058C128.403 46.5895 128.67 44.8638 128.67 42.9286C128.67 40.9935 128.403 39.2678 127.868 37.7514C127.348 36.2351 126.576 35.0365 125.55 34.1555C124.525 33.2746 123.247 32.8342 121.716 32.8342C120.171 32.8342 118.871 33.2746 117.817 34.1555C116.777 35.0365 115.99 36.2351 115.456 37.7514C114.936 39.2678 114.676 40.9935 114.676 42.9286C114.676 44.8638 114.936 46.5895 115.456 48.1058C115.99 49.6222 116.777 50.8208 117.817 51.7017C118.871 52.5682 120.171 53.0014 121.716 53.0014ZM159.04 72.6705C156.05 72.6705 153.487 72.2589 151.35 71.4357C149.227 70.627 147.537 69.5223 146.281 68.1214C145.025 66.7206 144.209 65.1465 143.833 63.3991L152.368 62.2511C152.628 62.9154 153.039 63.5363 153.603 64.114C154.166 64.6916 154.91 65.1538 155.834 65.5004C156.772 65.8614 157.913 66.0419 159.256 66.0419C161.264 66.0419 162.917 65.5509 164.217 64.5689C165.531 63.6013 166.188 61.9767 166.188 59.695V53.608H165.798C165.394 54.5322 164.787 55.4059 163.979 56.229C163.17 57.0522 162.13 57.7237 160.859 58.2436C159.589 58.7635 158.072 59.0234 156.31 59.0234C153.812 59.0234 151.538 58.4458 149.487 57.2905C147.451 56.1207 145.826 54.3372 144.613 51.94C143.414 49.5283 142.815 46.4812 142.815 42.7986C142.815 39.0295 143.429 35.8813 144.656 33.354C145.884 30.8268 147.516 28.935 149.552 27.6786C151.603 26.4222 153.848 25.794 156.289 25.794C158.152 25.794 159.711 26.1117 160.968 26.7472C162.224 27.3681 163.235 28.148 164 29.0866C164.78 30.0109 165.379 30.9207 165.798 31.816H166.145V26.2273H175.308V59.8249C175.308 62.6554 174.615 65.0238 173.228 66.93C171.842 68.8363 169.921 70.266 167.466 71.2191C165.026 72.1867 162.217 72.6705 159.04 72.6705ZM159.235 52.0916C160.722 52.0916 161.979 51.7234 163.004 50.9869C164.044 50.2359 164.838 49.1673 165.387 47.7809C165.95 46.3801 166.232 44.7049 166.232 42.7553C166.232 40.8058 165.957 39.1161 165.408 37.6864C164.86 36.2423 164.065 35.1231 163.026 34.3288C161.986 33.5346 160.722 33.1374 159.235 33.1374C157.718 33.1374 156.44 33.549 155.401 34.3722C154.361 35.1809 153.574 36.3073 153.039 37.7514C152.505 39.1955 152.238 40.8635 152.238 42.7553C152.238 44.676 152.505 46.3368 153.039 47.7376C153.588 49.1239 154.375 50.1998 155.401 50.9652C156.44 51.7161 157.718 52.0916 159.235 52.0916ZM196.769 59.5V26.2273H205.997V59.5H196.769ZM201.405 21.9382C200.033 21.9382 198.856 21.4833 197.874 20.5735C196.907 19.6493 196.423 18.5445 196.423 17.2592C196.423 15.9884 196.907 14.8981 197.874 13.9883C198.856 13.064 200.033 12.6019 201.405 12.6019C202.777 12.6019 203.947 13.064 204.914 13.9883C205.896 14.8981 206.387 15.9884 206.387 17.2592C206.387 18.5445 205.896 19.6493 204.914 20.5735C203.947 21.4833 202.777 21.9382 201.405 21.9382ZM222.618 40.2642V59.5H213.39V26.2273H222.184V32.0977H222.574C223.311 30.1625 224.545 28.6317 226.278 27.5053C228.011 26.3645 230.113 25.794 232.582 25.794C234.893 25.794 236.907 26.2995 238.626 27.3104C240.344 28.3213 241.68 29.7654 242.633 31.6428C243.586 33.5057 244.063 35.7296 244.063 38.3146V59.5H234.835V39.9609C234.849 37.9247 234.329 36.3362 233.275 35.1953C232.221 34.04 230.77 33.4624 228.921 33.4624C227.679 33.4624 226.582 33.7295 225.629 34.2638C224.69 34.7982 223.953 35.578 223.419 36.6033C222.899 37.6142 222.632 38.8345 222.618 40.2642Z" fill="black"/>
<path d="M233 89.5L83 89.5" stroke="#29ABE2" stroke-width="3" stroke-linecap="round"/>
</svg>
