<svg width="322" height="49" viewBox="0 0 322 49" fill="none" xmlns="http://www.w3.org/2000/svg">
<rect y="0.5" width="110" height="48" rx="8" fill="#2A3647"/>
<path d="M25.3274 32V16.7273H28.5565V29.3377H35.104V32H25.3274ZM42.3582 32.2237C41.1998 32.2237 40.1981 31.9776 39.3529 31.4854C38.5127 30.9883 37.8639 30.2972 37.4065 29.4123C36.9491 28.5224 36.7204 27.4908 36.7204 26.3175C36.7204 25.1342 36.9491 24.1001 37.4065 23.2152C37.8639 22.3253 38.5127 21.6342 39.3529 21.142C40.1981 20.6449 41.1998 20.3963 42.3582 20.3963C43.5166 20.3963 44.5159 20.6449 45.3561 21.142C46.2013 21.6342 46.8525 22.3253 47.3099 23.2152C47.7673 24.1001 47.996 25.1342 47.996 26.3175C47.996 27.4908 47.7673 28.5224 47.3099 29.4123C46.8525 30.2972 46.2013 30.9883 45.3561 31.4854C44.5159 31.9776 43.5166 32.2237 42.3582 32.2237ZM42.3731 29.7628C42.9001 29.7628 43.3401 29.6136 43.6931 29.3153C44.0461 29.0121 44.3121 28.5994 44.491 28.0774C44.675 27.5554 44.767 26.9613 44.767 26.2951C44.767 25.6289 44.675 25.0348 44.491 24.5128C44.3121 23.9908 44.0461 23.5781 43.6931 23.2749C43.3401 22.9716 42.9001 22.82 42.3731 22.82C41.8412 22.82 41.3937 22.9716 41.0308 23.2749C40.6729 23.5781 40.4019 23.9908 40.218 24.5128C40.039 25.0348 39.9495 25.6289 39.9495 26.2951C39.9495 26.9613 40.039 27.5554 40.218 28.0774C40.4019 28.5994 40.6729 29.0121 41.0308 29.3153C41.3937 29.6136 41.8412 29.7628 42.3731 29.7628ZM55.2222 36.5341C54.1931 36.5341 53.3106 36.3924 52.5748 36.109C51.844 35.8306 51.2623 35.4503 50.8298 34.968C50.3973 34.4858 50.1164 33.9439 49.9871 33.3423L52.9253 32.9471C53.0148 33.1758 53.1565 33.3896 53.3504 33.5884C53.5443 33.7873 53.8003 33.9464 54.1185 34.0657C54.4417 34.19 54.8344 34.2521 55.2968 34.2521C55.9878 34.2521 56.5571 34.0831 57.0045 33.745C57.4569 33.4119 57.6832 32.8526 57.6832 32.0671V29.9716H57.5489C57.4097 30.2898 57.2009 30.5906 56.9225 30.8739C56.6441 31.1573 56.2861 31.3885 55.8486 31.5675C55.4111 31.7464 54.8891 31.8359 54.2826 31.8359C53.4225 31.8359 52.6395 31.6371 51.9335 31.2393C51.2325 30.8366 50.6732 30.2227 50.2556 29.3974C49.843 28.5671 49.6366 27.5181 49.6366 26.2504C49.6366 24.9528 49.8479 23.869 50.2705 22.9989C50.6931 22.1289 51.2549 21.4776 51.9559 21.0451C52.6618 20.6126 53.4349 20.3963 54.2751 20.3963C54.9165 20.3963 55.4534 20.5057 55.8859 20.7244C56.3184 20.9382 56.6665 21.2067 56.93 21.5298C57.1984 21.848 57.4047 22.1612 57.5489 22.4695H57.6682V20.5455H60.8227V32.1119C60.8227 33.0863 60.5841 33.9016 60.1068 34.5579C59.6295 35.2141 58.9683 35.7063 58.1231 36.0344C57.2829 36.3675 56.316 36.5341 55.2222 36.5341ZM55.2893 29.4496C55.8014 29.4496 56.2339 29.3228 56.5869 29.0692C56.9449 28.8107 57.2183 28.4428 57.4072 27.9656C57.6011 27.4833 57.6981 26.9066 57.6981 26.2354C57.6981 25.5643 57.6036 24.9826 57.4147 24.4904C57.2258 23.9933 56.9523 23.608 56.5944 23.3345C56.2364 23.0611 55.8014 22.9244 55.2893 22.9244C54.7673 22.9244 54.3273 23.0661 53.9694 23.3494C53.6114 23.6278 53.3405 24.0156 53.1565 24.5128C52.9726 25.0099 52.8806 25.5842 52.8806 26.2354C52.8806 26.8967 52.9726 27.4684 53.1565 27.9506C53.3454 28.4279 53.6164 28.7983 53.9694 29.0618C54.3273 29.3203 54.7673 29.4496 55.2893 29.4496ZM68.2111 32V20.5455H71.388V32H68.2111ZM69.807 19.0689C69.3347 19.0689 68.9295 18.9123 68.5914 18.5991C68.2583 18.2809 68.0918 17.9006 68.0918 17.4581C68.0918 17.0206 68.2583 16.6452 68.5914 16.332C68.9295 16.0138 69.3347 15.8548 69.807 15.8548C70.2793 15.8548 70.682 16.0138 71.0151 16.332C71.3532 16.6452 71.5222 17.0206 71.5222 17.4581C71.5222 17.9006 71.3532 18.2809 71.0151 18.5991C70.682 18.9123 70.2793 19.0689 69.807 19.0689ZM77.1096 25.3778V32H73.9328V20.5455H76.9605V22.5664H77.0947C77.3483 21.9002 77.7733 21.3732 78.3699 20.9854C78.9665 20.5927 79.6899 20.3963 80.54 20.3963C81.3355 20.3963 82.029 20.5703 82.6207 20.9183C83.2123 21.2663 83.6721 21.7635 84.0003 22.4098C84.3284 23.0511 84.4925 23.8168 84.4925 24.7067V32H81.3156V25.2734C81.3206 24.5724 81.1416 24.0256 80.7787 23.6328C80.4157 23.2351 79.9161 23.0362 79.2797 23.0362C78.8522 23.0362 78.4743 23.1282 78.1462 23.3121C77.8231 23.4961 77.5695 23.7646 77.3856 24.1175C77.2066 24.4656 77.1146 24.8857 77.1096 25.3778Z" fill="white"/>
<rect x="145.5" y="1" width="176" height="47" rx="7.5" fill="white"/>
<rect x="145.5" y="1" width="176" height="47" rx="7.5" stroke="#2A3647"/>
<path d="M180.455 21.6641C180.35 21.3011 180.203 20.9805 180.015 20.7021C179.826 20.4187 179.594 20.18 179.321 19.9862C179.053 19.7873 178.744 19.6357 178.396 19.5312C178.053 19.4268 177.673 19.3746 177.255 19.3746C176.475 19.3746 175.789 19.5685 175.197 19.9563C174.61 20.3441 174.153 20.9084 173.825 21.6491C173.497 22.3849 173.333 23.2848 173.333 24.3487C173.333 25.4126 173.494 26.3175 173.817 27.0632C174.141 27.8089 174.598 28.3782 175.19 28.771C175.781 29.1587 176.48 29.3526 177.285 29.3526C178.016 29.3526 178.64 29.2234 179.157 28.9648C179.679 28.7013 180.077 28.331 180.35 27.8537C180.629 27.3764 180.768 26.8121 180.768 26.1609L181.424 26.2578H177.487V23.8267H183.877V25.7507C183.877 27.093 183.594 28.2464 183.027 29.2109C182.461 30.1705 181.68 30.9112 180.686 31.4332C179.691 31.9503 178.553 32.2088 177.27 32.2088C175.838 32.2088 174.581 31.8931 173.497 31.2617C172.413 30.6254 171.568 29.723 170.961 28.5547C170.36 27.3814 170.059 25.9893 170.059 24.3786C170.059 23.1406 170.238 22.0369 170.596 21.0675C170.959 20.093 171.466 19.2678 172.117 18.5916C172.768 17.9155 173.527 17.4009 174.392 17.0479C175.257 16.695 176.194 16.5185 177.203 16.5185C178.068 16.5185 178.874 16.6452 179.619 16.8988C180.365 17.1474 181.026 17.5004 181.603 17.9577C182.185 18.4151 182.659 18.9595 183.027 19.5909C183.395 20.2173 183.631 20.9084 183.736 21.6641H180.455ZM193.589 27.1229V20.5455H196.766V32H193.716V29.9194H193.596C193.338 30.5906 192.908 31.13 192.306 31.5376C191.71 31.9453 190.981 32.1491 190.121 32.1491C189.356 32.1491 188.682 31.9751 188.1 31.6271C187.519 31.2791 187.064 30.7844 186.736 30.1431C186.412 29.5018 186.248 28.7337 186.243 27.8388V20.5455H189.42V27.272C189.425 27.9482 189.607 28.4826 189.965 28.8754C190.323 29.2681 190.802 29.4645 191.404 29.4645C191.787 29.4645 192.145 29.3775 192.478 29.2035C192.811 29.0245 193.079 28.761 193.283 28.413C193.492 28.065 193.594 27.6349 193.589 27.1229ZM204.527 32.2237C203.349 32.2237 202.335 31.9851 201.484 31.5078C200.639 31.0256 199.988 30.3445 199.531 29.4645C199.073 28.5795 198.844 27.533 198.844 26.3249C198.844 25.1467 199.073 24.1126 199.531 23.2227C199.988 22.3327 200.632 21.6392 201.462 21.142C202.297 20.6449 203.277 20.3963 204.4 20.3963C205.156 20.3963 205.859 20.5181 206.511 20.7617C207.167 21.0004 207.739 21.3608 208.226 21.843C208.718 22.3253 209.101 22.9318 209.374 23.6626C209.648 24.3885 209.784 25.2386 209.784 26.2131V27.0856H200.112V25.1168H206.794C206.794 24.6594 206.695 24.2543 206.496 23.9013C206.297 23.5483 206.021 23.2724 205.668 23.0735C205.32 22.8697 204.915 22.7678 204.452 22.7678C203.97 22.7678 203.543 22.8796 203.17 23.1033C202.802 23.3221 202.513 23.6179 202.305 23.9908C202.096 24.3587 201.989 24.7688 201.984 25.2212V27.093C201.984 27.6598 202.088 28.1495 202.297 28.5621C202.511 28.9748 202.812 29.293 203.2 29.5167C203.587 29.7404 204.047 29.8523 204.579 29.8523C204.932 29.8523 205.255 29.8026 205.549 29.7031C205.842 29.6037 206.093 29.4545 206.302 29.2557C206.511 29.0568 206.67 28.8132 206.779 28.5249L209.717 28.7188C209.568 29.4247 209.262 30.0412 208.8 30.5682C208.343 31.0902 207.751 31.4979 207.025 31.7912C206.304 32.0795 205.472 32.2237 204.527 32.2237ZM221.388 23.8118L218.48 23.9908C218.43 23.7422 218.323 23.5185 218.159 23.3196C217.995 23.1158 217.779 22.9542 217.51 22.8349C217.247 22.7106 216.931 22.6484 216.563 22.6484C216.071 22.6484 215.656 22.7528 215.318 22.9616C214.98 23.1655 214.811 23.4389 214.811 23.782C214.811 24.0554 214.92 24.2866 215.139 24.4755C215.358 24.6644 215.733 24.8161 216.265 24.9304L218.338 25.348C219.452 25.5767 220.282 25.9446 220.829 26.4517C221.376 26.9588 221.649 27.625 221.649 28.4503C221.649 29.201 221.428 29.8597 220.985 30.4265C220.548 30.9933 219.946 31.4357 219.181 31.7539C218.42 32.0671 217.543 32.2237 216.548 32.2237C215.032 32.2237 213.824 31.908 212.924 31.2766C212.029 30.6403 211.505 29.7752 211.35 28.6815L214.475 28.5174C214.57 28.9798 214.798 29.3327 215.161 29.5763C215.524 29.815 215.989 29.9343 216.556 29.9343C217.113 29.9343 217.56 29.8274 217.898 29.6136C218.241 29.3949 218.415 29.114 218.42 28.771C218.415 28.4826 218.293 28.2464 218.055 28.0625C217.816 27.8736 217.448 27.7294 216.951 27.63L214.967 27.2347C213.849 27.011 213.016 26.6232 212.469 26.0714C211.927 25.5195 211.656 24.8161 211.656 23.9609C211.656 23.2251 211.855 22.5913 212.253 22.0593C212.656 21.5273 213.22 21.1172 213.946 20.8288C214.676 20.5405 215.532 20.3963 216.511 20.3963C217.958 20.3963 219.096 20.7021 219.926 21.3136C220.762 21.9251 221.249 22.7578 221.388 23.8118ZM229.742 20.5455V22.9318H222.844V20.5455H229.742ZM224.41 17.8011H227.587V28.4801C227.587 28.7734 227.632 29.0021 227.721 29.1662C227.811 29.3253 227.935 29.4371 228.094 29.5018C228.258 29.5664 228.447 29.5987 228.661 29.5987C228.81 29.5987 228.959 29.5863 229.108 29.5614C229.258 29.5316 229.372 29.5092 229.451 29.4943L229.951 31.8583C229.792 31.908 229.568 31.9652 229.28 32.0298C228.992 32.0994 228.641 32.1417 228.228 32.1566C227.463 32.1864 226.792 32.0845 226.215 31.8509C225.643 31.6172 225.198 31.2543 224.88 30.7621C224.562 30.2699 224.405 29.6484 224.41 28.8977V17.8011ZM236.732 32V16.7273H239.961V29.3377H246.508V32H236.732ZM253.763 32.2237C252.604 32.2237 251.602 31.9776 250.757 31.4854C249.917 30.9883 249.268 30.2972 248.811 29.4123C248.353 28.5224 248.125 27.4908 248.125 26.3175C248.125 25.1342 248.353 24.1001 248.811 23.2152C249.268 22.3253 249.917 21.6342 250.757 21.142C251.602 20.6449 252.604 20.3963 253.763 20.3963C254.921 20.3963 255.92 20.6449 256.76 21.142C257.606 21.6342 258.257 22.3253 258.714 23.2152C259.172 24.1001 259.4 25.1342 259.4 26.3175C259.4 27.4908 259.172 28.5224 258.714 29.4123C258.257 30.2972 257.606 30.9883 256.76 31.4854C255.92 31.9776 254.921 32.2237 253.763 32.2237ZM253.777 29.7628C254.304 29.7628 254.744 29.6136 255.097 29.3153C255.45 29.0121 255.716 28.5994 255.895 28.0774C256.079 27.5554 256.171 26.9613 256.171 26.2951C256.171 25.6289 256.079 25.0348 255.895 24.5128C255.716 23.9908 255.45 23.5781 255.097 23.2749C254.744 22.9716 254.304 22.82 253.777 22.82C253.245 22.82 252.798 22.9716 252.435 23.2749C252.077 23.5781 251.806 23.9908 251.622 24.5128C251.443 25.0348 251.354 25.6289 251.354 26.2951C251.354 26.9613 251.443 27.5554 251.622 28.0774C251.806 28.5994 252.077 29.0121 252.435 29.3153C252.798 29.6136 253.245 29.7628 253.777 29.7628ZM266.627 36.5341C265.597 36.5341 264.715 36.3924 263.979 36.109C263.248 35.8306 262.667 35.4503 262.234 34.968C261.802 34.4858 261.521 33.9439 261.391 33.3423L264.33 32.9471C264.419 33.1758 264.561 33.3896 264.755 33.5884C264.949 33.7873 265.205 33.9464 265.523 34.0657C265.846 34.19 266.239 34.2521 266.701 34.2521C267.392 34.2521 267.961 34.0831 268.409 33.745C268.861 33.4119 269.087 32.8526 269.087 32.0671V29.9716H268.953C268.814 30.2898 268.605 30.5906 268.327 30.8739C268.048 31.1573 267.69 31.3885 267.253 31.5675C266.815 31.7464 266.293 31.8359 265.687 31.8359C264.827 31.8359 264.044 31.6371 263.338 31.2393C262.637 30.8366 262.078 30.2227 261.66 29.3974C261.247 28.5671 261.041 27.5181 261.041 26.2504C261.041 24.9528 261.252 23.869 261.675 22.9989C262.097 22.1289 262.659 21.4776 263.36 21.0451C264.066 20.6126 264.839 20.3963 265.679 20.3963C266.321 20.3963 266.858 20.5057 267.29 20.7244C267.723 20.9382 268.071 21.2067 268.334 21.5298C268.603 21.848 268.809 22.1612 268.953 22.4695H269.073V20.5455H272.227V32.1119C272.227 33.0863 271.988 33.9016 271.511 34.5579C271.034 35.2141 270.373 35.7063 269.527 36.0344C268.687 36.3675 267.72 36.5341 266.627 36.5341ZM266.694 29.4496C267.206 29.4496 267.638 29.3228 267.991 29.0692C268.349 28.8107 268.623 28.4428 268.812 27.9656C269.005 27.4833 269.102 26.9066 269.102 26.2354C269.102 25.5643 269.008 24.9826 268.819 24.4904C268.63 23.9933 268.357 23.608 267.999 23.3345C267.641 23.0611 267.206 22.9244 266.694 22.9244C266.172 22.9244 265.732 23.0661 265.374 23.3494C265.016 23.6278 264.745 24.0156 264.561 24.5128C264.377 25.0099 264.285 25.5842 264.285 26.2354C264.285 26.8967 264.377 27.4684 264.561 27.9506C264.75 28.4279 265.021 28.7983 265.374 29.0618C265.732 29.3203 266.172 29.4496 266.694 29.4496ZM279.615 32V20.5455H282.792V32H279.615ZM281.211 19.0689C280.739 19.0689 280.334 18.9123 279.996 18.5991C279.663 18.2809 279.496 17.9006 279.496 17.4581C279.496 17.0206 279.663 16.6452 279.996 16.332C280.334 16.0138 280.739 15.8548 281.211 15.8548C281.684 15.8548 282.086 16.0138 282.419 16.332C282.757 16.6452 282.926 17.0206 282.926 17.4581C282.926 17.9006 282.757 18.2809 282.419 18.5991C282.086 18.9123 281.684 19.0689 281.211 19.0689ZM288.514 25.3778V32H285.337V20.5455H288.365V22.5664H288.499C288.753 21.9002 289.178 21.3732 289.774 20.9854C290.371 20.5927 291.094 20.3963 291.944 20.3963C292.74 20.3963 293.433 20.5703 294.025 20.9183C294.617 21.2663 295.076 21.7635 295.405 22.4098C295.733 23.0511 295.897 23.8168 295.897 24.7067V32H292.72V25.2734C292.725 24.5724 292.546 24.0256 292.183 23.6328C291.82 23.2351 291.32 23.0362 290.684 23.0362C290.256 23.0362 289.879 23.1282 289.551 23.3121C289.227 23.4961 288.974 23.7646 288.79 24.1175C288.611 24.4656 288.519 24.8857 288.514 25.3778Z" fill="#2A3647"/>
</svg>
