<svg width="422" height="25" viewBox="0 0 422 25" fill="none" xmlns="http://www.w3.org/2000/svg">
<rect x="43" y="4.5" width="16" height="16" rx="3" stroke="#2A3647" stroke-width="2"/>
<path d="M72.4091 18V6.36364H76.3409C77.25 6.36364 77.9962 6.51894 78.5795 6.82955C79.1629 7.13636 79.5947 7.55871 79.875 8.09659C80.1553 8.63447 80.2955 9.24621 80.2955 9.93182C80.2955 10.6174 80.1553 11.2254 79.875 11.7557C79.5947 12.286 79.1648 12.7027 78.5852 13.0057C78.0057 13.3049 77.2652 13.4545 76.3636 13.4545H73.1818V12.1818H76.3182C76.9394 12.1818 77.4394 12.0909 77.8182 11.9091C78.2008 11.7273 78.4773 11.4697 78.6477 11.1364C78.822 10.7992 78.9091 10.3977 78.9091 9.93182C78.9091 9.46591 78.822 9.05871 78.6477 8.71023C78.4735 8.36174 78.1951 8.0928 77.8125 7.90341C77.4299 7.71023 76.9242 7.61364 76.2955 7.61364H73.8182V18H72.4091ZM77.8864 12.7727L80.75 18H79.1136L76.2955 12.7727H77.8864ZM86.027 18.1818C85.1861 18.1818 84.4607 17.9962 83.8509 17.625C83.2448 17.25 82.777 16.7273 82.4474 16.0568C82.1217 15.3826 81.9588 14.5985 81.9588 13.7045C81.9588 12.8106 82.1217 12.0227 82.4474 11.3409C82.777 10.6553 83.2353 10.1212 83.8224 9.73864C84.4134 9.35227 85.1027 9.15909 85.8906 9.15909C86.3452 9.15909 86.794 9.23485 87.2372 9.38636C87.6804 9.53788 88.0838 9.78409 88.4474 10.125C88.8111 10.4621 89.1009 10.9091 89.3168 11.4659C89.5327 12.0227 89.6406 12.7083 89.6406 13.5227V14.0909H82.9134V12.9318H88.277C88.277 12.4394 88.1785 12 87.9815 11.6136C87.7884 11.2273 87.5118 10.9223 87.152 10.6989C86.7959 10.4754 86.3755 10.3636 85.8906 10.3636C85.3565 10.3636 84.8944 10.4962 84.5043 10.7614C84.1179 11.0227 83.8205 11.3636 83.6122 11.7841C83.4039 12.2045 83.2997 12.6553 83.2997 13.1364V13.9091C83.2997 14.5682 83.4134 15.1269 83.6406 15.5852C83.8717 16.0398 84.1918 16.3864 84.6009 16.625C85.0099 16.8598 85.4853 16.9773 86.027 16.9773C86.3793 16.9773 86.6974 16.928 86.9815 16.8295C87.2694 16.7273 87.5175 16.5758 87.7259 16.375C87.9342 16.1705 88.0952 15.9167 88.2088 15.6136L89.5043 15.9773C89.3679 16.4167 89.1387 16.803 88.8168 17.1364C88.4948 17.4659 88.0971 17.7235 87.6236 17.9091C87.1501 18.0909 86.6179 18.1818 86.027 18.1818ZM91.6804 18V9.27273H92.9759V10.6364H93.0895C93.2713 10.1705 93.5649 9.80871 93.9702 9.55114C94.3755 9.28977 94.8622 9.15909 95.4304 9.15909C96.0062 9.15909 96.4853 9.28977 96.8679 9.55114C97.2543 9.80871 97.5554 10.1705 97.7713 10.6364H97.8622C98.0857 10.1856 98.4209 9.82765 98.8679 9.5625C99.3149 9.29356 99.8509 9.15909 100.476 9.15909C101.256 9.15909 101.894 9.40341 102.391 9.89205C102.887 10.3769 103.135 11.1326 103.135 12.1591V18H101.794V12.1591C101.794 11.5152 101.618 11.0549 101.266 10.7784C100.913 10.5019 100.499 10.3636 100.021 10.3636C99.4077 10.3636 98.9323 10.5492 98.5952 10.9205C98.258 11.2879 98.0895 11.7538 98.0895 12.3182V18H96.7259V12.0227C96.7259 11.5265 96.5649 11.1269 96.2429 10.8239C95.9209 10.517 95.5062 10.3636 94.9986 10.3636C94.6501 10.3636 94.3243 10.4564 94.0213 10.642C93.7221 10.8277 93.4796 11.0852 93.294 11.4148C93.1122 11.7405 93.0213 12.1174 93.0213 12.5455V18H91.6804ZM109.246 18.1818C108.405 18.1818 107.679 17.9962 107.07 17.625C106.464 17.25 105.996 16.7273 105.666 16.0568C105.34 15.3826 105.178 14.5985 105.178 13.7045C105.178 12.8106 105.34 12.0227 105.666 11.3409C105.996 10.6553 106.454 10.1212 107.041 9.73864C107.632 9.35227 108.321 9.15909 109.109 9.15909C109.564 9.15909 110.013 9.23485 110.456 9.38636C110.899 9.53788 111.303 9.78409 111.666 10.125C112.03 10.4621 112.32 10.9091 112.536 11.4659C112.751 12.0227 112.859 12.7083 112.859 13.5227V14.0909H106.132V12.9318H111.496C111.496 12.4394 111.397 12 111.2 11.6136C111.007 11.2273 110.731 10.9223 110.371 10.6989C110.015 10.4754 109.594 10.3636 109.109 10.3636C108.575 10.3636 108.113 10.4962 107.723 10.7614C107.337 11.0227 107.039 11.3636 106.831 11.7841C106.623 12.2045 106.518 12.6553 106.518 13.1364V13.9091C106.518 14.5682 106.632 15.1269 106.859 15.5852C107.09 16.0398 107.411 16.3864 107.82 16.625C108.229 16.8598 108.704 16.9773 109.246 16.9773C109.598 16.9773 109.916 16.928 110.2 16.8295C110.488 16.7273 110.736 16.5758 110.945 16.375C111.153 16.1705 111.314 15.9167 111.428 15.6136L112.723 15.9773C112.587 16.4167 112.357 16.803 112.036 17.1364C111.714 17.4659 111.316 17.7235 110.842 17.9091C110.369 18.0909 109.837 18.1818 109.246 18.1818ZM114.899 18V9.27273H116.195V10.6364H116.308C116.49 10.1705 116.784 9.80871 117.189 9.55114C117.594 9.28977 118.081 9.15909 118.649 9.15909C119.225 9.15909 119.704 9.28977 120.087 9.55114C120.473 9.80871 120.774 10.1705 120.99 10.6364H121.081C121.304 10.1856 121.64 9.82765 122.087 9.5625C122.534 9.29356 123.07 9.15909 123.695 9.15909C124.475 9.15909 125.113 9.40341 125.609 9.89205C126.106 10.3769 126.354 11.1326 126.354 12.1591V18H125.013V12.1591C125.013 11.5152 124.837 11.0549 124.484 10.7784C124.132 10.5019 123.717 10.3636 123.24 10.3636C122.626 10.3636 122.151 10.5492 121.814 10.9205C121.477 11.2879 121.308 11.7538 121.308 12.3182V18H119.945V12.0227C119.945 11.5265 119.784 11.1269 119.462 10.8239C119.14 10.517 118.725 10.3636 118.217 10.3636C117.869 10.3636 117.543 10.4564 117.24 10.642C116.941 10.8277 116.698 11.0852 116.513 11.4148C116.331 11.7405 116.24 12.1174 116.24 12.5455V18H114.899ZM128.987 18V6.36364H130.328V10.6591H130.442C130.54 10.5076 130.677 10.3144 130.851 10.0795C131.029 9.84091 131.283 9.62879 131.612 9.44318C131.946 9.25379 132.396 9.15909 132.964 9.15909C133.699 9.15909 134.347 9.3428 134.908 9.71023C135.468 10.0777 135.906 10.5985 136.22 11.2727C136.535 11.947 136.692 12.7424 136.692 13.6591C136.692 14.5833 136.535 15.3845 136.22 16.0625C135.906 16.7367 135.47 17.2595 134.913 17.6307C134.357 17.9981 133.714 18.1818 132.987 18.1818C132.427 18.1818 131.978 18.089 131.641 17.9034C131.304 17.714 131.044 17.5 130.862 17.2614C130.68 17.0189 130.54 16.8182 130.442 16.6591H130.283V18H128.987ZM130.305 13.6364C130.305 14.2955 130.402 14.8769 130.595 15.3807C130.788 15.8807 131.071 16.2727 131.442 16.5568C131.813 16.8371 132.268 16.9773 132.805 16.9773C133.366 16.9773 133.834 16.8295 134.209 16.5341C134.588 16.2348 134.872 15.8333 135.061 15.3295C135.254 14.822 135.351 14.2576 135.351 13.6364C135.351 13.0227 135.256 12.4697 135.067 11.9773C134.881 11.4811 134.599 11.089 134.22 10.8011C133.845 10.5095 133.374 10.3636 132.805 10.3636C132.26 10.3636 131.802 10.5019 131.43 10.7784C131.059 11.0511 130.779 11.4337 130.589 11.9261C130.4 12.4148 130.305 12.9848 130.305 13.6364ZM142.402 18.1818C141.561 18.1818 140.836 17.9962 140.226 17.625C139.62 17.25 139.152 16.7273 138.822 16.0568C138.497 15.3826 138.334 14.5985 138.334 13.7045C138.334 12.8106 138.497 12.0227 138.822 11.3409C139.152 10.6553 139.61 10.1212 140.197 9.73864C140.788 9.35227 141.478 9.15909 142.266 9.15909C142.72 9.15909 143.169 9.23485 143.612 9.38636C144.055 9.53788 144.459 9.78409 144.822 10.125C145.186 10.4621 145.476 10.9091 145.692 11.4659C145.908 12.0227 146.016 12.7083 146.016 13.5227V14.0909H139.288V12.9318H144.652C144.652 12.4394 144.554 12 144.357 11.6136C144.163 11.2273 143.887 10.9223 143.527 10.6989C143.171 10.4754 142.75 10.3636 142.266 10.3636C141.732 10.3636 141.269 10.4962 140.879 10.7614C140.493 11.0227 140.196 11.3636 139.987 11.7841C139.779 12.2045 139.675 12.6553 139.675 13.1364V13.9091C139.675 14.5682 139.788 15.1269 140.016 15.5852C140.247 16.0398 140.567 16.3864 140.976 16.625C141.385 16.8598 141.86 16.9773 142.402 16.9773C142.754 16.9773 143.072 16.928 143.357 16.8295C143.644 16.7273 143.893 16.5758 144.101 16.375C144.309 16.1705 144.47 15.9167 144.584 15.6136L145.879 15.9773C145.743 16.4167 145.514 16.803 145.192 17.1364C144.87 17.4659 144.472 17.7235 143.999 17.9091C143.525 18.0909 142.993 18.1818 142.402 18.1818ZM148.055 18V9.27273H149.351V10.5909H149.442C149.601 10.1591 149.889 9.80871 150.305 9.53977C150.722 9.27083 151.192 9.13636 151.714 9.13636C151.813 9.13636 151.936 9.13826 152.084 9.14205C152.232 9.14583 152.343 9.15152 152.419 9.15909V10.5227C152.374 10.5114 152.269 10.4943 152.107 10.4716C151.947 10.4451 151.779 10.4318 151.601 10.4318C151.177 10.4318 150.798 10.5208 150.464 10.6989C150.135 10.8731 149.874 11.1155 149.68 11.4261C149.491 11.733 149.396 12.0833 149.396 12.4773V18H148.055ZM158.509 18V9.27273H159.804V10.6364H159.918C160.099 10.1705 160.393 9.80871 160.798 9.55114C161.204 9.28977 161.69 9.15909 162.259 9.15909C162.834 9.15909 163.313 9.28977 163.696 9.55114C164.082 9.80871 164.384 10.1705 164.599 10.6364H164.69C164.914 10.1856 165.249 9.82765 165.696 9.5625C166.143 9.29356 166.679 9.15909 167.304 9.15909C168.084 9.15909 168.723 9.40341 169.219 9.89205C169.715 10.3769 169.963 11.1326 169.963 12.1591V18H168.622V12.1591C168.622 11.5152 168.446 11.0549 168.094 10.7784C167.741 10.5019 167.327 10.3636 166.849 10.3636C166.236 10.3636 165.76 10.5492 165.423 10.9205C165.086 11.2879 164.918 11.7538 164.918 12.3182V18H163.554V12.0227C163.554 11.5265 163.393 11.1269 163.071 10.8239C162.749 10.517 162.334 10.3636 161.827 10.3636C161.478 10.3636 161.152 10.4564 160.849 10.642C160.55 10.8277 160.308 11.0852 160.122 11.4148C159.94 11.7405 159.849 12.1174 159.849 12.5455V18H158.509ZM176.074 18.1818C175.233 18.1818 174.508 17.9962 173.898 17.625C173.292 17.25 172.824 16.7273 172.494 16.0568C172.169 15.3826 172.006 14.5985 172.006 13.7045C172.006 12.8106 172.169 12.0227 172.494 11.3409C172.824 10.6553 173.282 10.1212 173.869 9.73864C174.46 9.35227 175.15 9.15909 175.938 9.15909C176.392 9.15909 176.841 9.23485 177.284 9.38636C177.727 9.53788 178.131 9.78409 178.494 10.125C178.858 10.4621 179.148 10.9091 179.364 11.4659C179.58 12.0227 179.688 12.7083 179.688 13.5227V14.0909H172.96V12.9318H178.324C178.324 12.4394 178.225 12 178.028 11.6136C177.835 11.2273 177.559 10.9223 177.199 10.6989C176.843 10.4754 176.422 10.3636 175.938 10.3636C175.403 10.3636 174.941 10.4962 174.551 10.7614C174.165 11.0227 173.867 11.3636 173.659 11.7841C173.451 12.2045 173.347 12.6553 173.347 13.1364V13.9091C173.347 14.5682 173.46 15.1269 173.688 15.5852C173.919 16.0398 174.239 16.3864 174.648 16.625C175.057 16.8598 175.532 16.9773 176.074 16.9773C176.426 16.9773 176.744 16.928 177.028 16.8295C177.316 16.7273 177.564 16.5758 177.773 16.375C177.981 16.1705 178.142 15.9167 178.256 15.6136L179.551 15.9773C179.415 16.4167 179.186 16.803 178.864 17.1364C178.542 17.4659 178.144 17.7235 177.67 17.9091C177.197 18.0909 176.665 18.1818 176.074 18.1818Z" fill="black"/>
</svg>
