<svg width="686" height="528" viewBox="0 0 686 528" fill="none" xmlns="http://www.w3.org/2000/svg">
<g filter="url(#filter0_d_301_1253)">
<rect x="17" y="17.5" width="652" height="493" rx="30" fill="white"/>
<path d="M257.203 124.5V80.1364H266.582V116.767H285.601V124.5H257.203ZM306.673 125.15C303.308 125.15 300.398 124.435 297.943 123.005C295.503 121.561 293.618 119.554 292.289 116.983C290.961 114.398 290.297 111.402 290.297 107.994C290.297 104.557 290.961 101.553 292.289 98.9822C293.618 96.3973 295.503 94.3899 297.943 92.9602C300.398 91.5161 303.308 90.794 306.673 90.794C310.038 90.794 312.94 91.5161 315.381 92.9602C317.836 94.3899 319.728 96.3973 321.056 98.9822C322.385 101.553 323.049 104.557 323.049 107.994C323.049 111.402 322.385 114.398 321.056 116.983C319.728 119.554 317.836 121.561 315.381 123.005C312.94 124.435 310.038 125.15 306.673 125.15ZM306.716 118.001C308.247 118.001 309.525 117.568 310.55 116.702C311.576 115.821 312.348 114.622 312.868 113.106C313.403 111.589 313.67 109.864 313.67 107.929C313.67 105.993 313.403 104.268 312.868 102.751C312.348 101.235 311.576 100.036 310.55 99.1555C309.525 98.2746 308.247 97.8342 306.716 97.8342C305.171 97.8342 303.871 98.2746 302.817 99.1555C301.777 100.036 300.99 101.235 300.456 102.751C299.936 104.268 299.676 105.993 299.676 107.929C299.676 109.864 299.936 111.589 300.456 113.106C300.99 114.622 301.777 115.821 302.817 116.702C303.871 117.568 305.171 118.001 306.716 118.001ZM344.04 137.67C341.05 137.67 338.487 137.259 336.35 136.436C334.227 135.627 332.537 134.522 331.281 133.121C330.025 131.721 329.209 130.147 328.833 128.399L337.368 127.251C337.628 127.915 338.039 128.536 338.603 129.114C339.166 129.692 339.91 130.154 340.834 130.5C341.772 130.861 342.913 131.042 344.256 131.042C346.264 131.042 347.917 130.551 349.217 129.569C350.531 128.601 351.188 126.977 351.188 124.695V118.608H350.798C350.394 119.532 349.787 120.406 348.979 121.229C348.17 122.052 347.13 122.724 345.859 123.244C344.589 123.763 343.072 124.023 341.31 124.023C338.812 124.023 336.538 123.446 334.487 122.29C332.451 121.121 330.826 119.337 329.613 116.94C328.414 114.528 327.815 111.481 327.815 107.799C327.815 104.029 328.429 100.881 329.656 98.354C330.884 95.8268 332.516 93.935 334.552 92.6786C336.603 91.4222 338.848 90.794 341.289 90.794C343.152 90.794 344.711 91.1117 345.968 91.7472C347.224 92.3681 348.235 93.148 349 94.0866C349.78 95.0109 350.379 95.9207 350.798 96.816H351.145V91.2273H360.308V124.825C360.308 127.655 359.615 130.024 358.228 131.93C356.842 133.836 354.921 135.266 352.466 136.219C350.026 137.187 347.217 137.67 344.04 137.67ZM344.235 117.092C345.722 117.092 346.979 116.723 348.004 115.987C349.044 115.236 349.838 114.167 350.387 112.781C350.95 111.38 351.232 109.705 351.232 107.755C351.232 105.806 350.957 104.116 350.408 102.686C349.86 101.242 349.065 100.123 348.026 99.3288C346.986 98.5346 345.722 98.1374 344.235 98.1374C342.718 98.1374 341.44 98.549 340.401 99.3722C339.361 100.181 338.574 101.307 338.039 102.751C337.505 104.196 337.238 105.864 337.238 107.755C337.238 109.676 337.505 111.337 338.039 112.738C338.588 114.124 339.375 115.2 340.401 115.965C341.44 116.716 342.718 117.092 344.235 117.092ZM381.769 124.5V91.2273H390.997V124.5H381.769ZM386.405 86.9382C385.033 86.9382 383.856 86.4833 382.874 85.5735C381.907 84.6493 381.423 83.5445 381.423 82.2592C381.423 80.9884 381.907 79.8981 382.874 78.9883C383.856 78.064 385.033 77.6019 386.405 77.6019C387.777 77.6019 388.947 78.064 389.914 78.9883C390.896 79.8981 391.387 80.9884 391.387 82.2592C391.387 83.5445 390.896 84.6493 389.914 85.5735C388.947 86.4833 387.777 86.9382 386.405 86.9382ZM407.618 105.264V124.5H398.39V91.2273H407.184V97.0977H407.574C408.311 95.1625 409.545 93.6317 411.278 92.5053C413.011 91.3645 415.113 90.794 417.582 90.794C419.893 90.794 421.907 91.2995 423.626 92.3104C425.344 93.3213 426.68 94.7654 427.633 96.6428C428.586 98.5057 429.063 100.73 429.063 103.315V124.5H419.835V104.961C419.849 102.925 419.329 101.336 418.275 100.195C417.221 99.04 415.77 98.4624 413.921 98.4624C412.679 98.4624 411.582 98.7295 410.629 99.2638C409.69 99.7982 408.953 100.578 408.419 101.603C407.899 102.614 407.632 103.835 407.618 105.264Z" fill="black"/>
<path d="M418 154.5H268" stroke="#29ABE2" stroke-width="3" stroke-linecap="round"/>
<rect x="132.5" y="187" width="421" height="47" rx="9.5" fill="white"/>
<rect x="132.5" y="187" width="421" height="47" rx="9.5" stroke="#D1D1D1"/>
<path d="M154.761 217.5V202.955H163.54V204.517H156.523V209.432H163.085V210.994H156.523V215.938H163.653V217.5H154.761ZM166.487 217.5V206.591H168.107V208.295H168.249C168.476 207.713 168.843 207.261 169.349 206.939C169.856 206.612 170.464 206.449 171.175 206.449C171.894 206.449 172.493 206.612 172.972 206.939C173.455 207.261 173.831 207.713 174.101 208.295H174.214C174.494 207.732 174.913 207.285 175.472 206.953C176.03 206.617 176.7 206.449 177.482 206.449C178.457 206.449 179.255 206.754 179.875 207.365C180.495 207.971 180.805 208.916 180.805 210.199V217.5H179.129V210.199C179.129 209.394 178.909 208.819 178.469 208.473C178.028 208.127 177.51 207.955 176.913 207.955C176.146 207.955 175.552 208.187 175.131 208.651C174.709 209.11 174.499 209.692 174.499 210.398V217.5H172.794V210.028C172.794 209.408 172.593 208.909 172.19 208.53C171.788 208.146 171.269 207.955 170.635 207.955C170.199 207.955 169.792 208.071 169.413 208.303C169.039 208.535 168.736 208.857 168.504 209.268C168.277 209.676 168.163 210.147 168.163 210.682V217.5H166.487ZM187.08 217.756C186.389 217.756 185.762 217.625 185.198 217.365C184.635 217.1 184.187 216.719 183.856 216.222C183.524 215.72 183.359 215.114 183.359 214.403C183.359 213.778 183.482 213.272 183.728 212.884C183.974 212.491 184.303 212.183 184.715 211.96C185.127 211.738 185.582 211.572 186.079 211.463C186.581 211.349 187.085 211.259 187.592 211.193C188.254 211.108 188.792 211.044 189.204 211.001C189.621 210.954 189.924 210.876 190.113 210.767C190.307 210.658 190.404 210.469 190.404 210.199V210.142C190.404 209.441 190.212 208.897 189.829 208.509C189.45 208.12 188.875 207.926 188.103 207.926C187.303 207.926 186.675 208.101 186.221 208.452C185.766 208.802 185.447 209.176 185.262 209.574L183.671 209.006C183.955 208.343 184.334 207.827 184.808 207.457C185.286 207.083 185.807 206.823 186.37 206.676C186.938 206.525 187.497 206.449 188.046 206.449C188.397 206.449 188.799 206.491 189.254 206.577C189.713 206.657 190.156 206.825 190.582 207.081C191.013 207.337 191.37 207.723 191.654 208.239C191.938 208.755 192.08 209.446 192.08 210.312V217.5H190.404V216.023H190.319C190.205 216.259 190.016 216.513 189.751 216.783C189.486 217.053 189.133 217.282 188.692 217.472C188.252 217.661 187.715 217.756 187.08 217.756ZM187.336 216.25C187.999 216.25 188.558 216.12 189.012 215.859C189.471 215.599 189.817 215.263 190.049 214.851C190.286 214.439 190.404 214.006 190.404 213.551V212.017C190.333 212.102 190.177 212.18 189.935 212.251C189.699 212.318 189.424 212.377 189.112 212.429C188.804 212.476 188.503 212.519 188.21 212.557C187.921 212.59 187.686 212.618 187.506 212.642C187.071 212.699 186.664 212.791 186.285 212.919C185.911 213.042 185.608 213.229 185.376 213.48C185.148 213.726 185.035 214.062 185.035 214.489C185.035 215.071 185.25 215.511 185.681 215.81C186.117 216.103 186.668 216.25 187.336 216.25ZM195.14 217.5V206.591H196.816V217.5H195.14ZM195.992 204.773C195.665 204.773 195.383 204.661 195.147 204.439C194.915 204.216 194.799 203.949 194.799 203.636C194.799 203.324 194.915 203.056 195.147 202.834C195.383 202.611 195.665 202.5 195.992 202.5C196.319 202.5 196.598 202.611 196.83 202.834C197.067 203.056 197.185 203.324 197.185 203.636C197.185 203.949 197.067 204.216 196.83 204.439C196.598 204.661 196.319 204.773 195.992 204.773ZM201.562 202.955V217.5H199.886V202.955H201.562Z" fill="#D1D1D1"/>
<mask id="mask0_301_1253" style="mask-type:alpha" maskUnits="userSpaceOnUse" x="509" y="198" width="24" height="25">
<rect x="509" y="198.5" width="24" height="24" fill="#D9D9D9"/>
</mask>
<g mask="url(#mask0_301_1253)">
<path d="M513 218.5C512.45 218.5 511.979 218.304 511.588 217.913C511.196 217.521 511 217.05 511 216.5V204.5C511 203.95 511.196 203.479 511.588 203.088C511.979 202.696 512.45 202.5 513 202.5H529C529.55 202.5 530.021 202.696 530.413 203.088C530.804 203.479 531 203.95 531 204.5V216.5C531 217.05 530.804 217.521 530.413 217.913C530.021 218.304 529.55 218.5 529 218.5H513ZM529 206.5L521.525 211.175C521.442 211.225 521.354 211.263 521.262 211.288C521.171 211.312 521.083 211.325 521 211.325C520.917 211.325 520.829 211.312 520.738 211.288C520.646 211.263 520.558 211.225 520.475 211.175L513 206.5V216.5H529V206.5ZM521 209.5L529 204.5H513L521 209.5ZM513 206.75V205.275V205.3V205.288V206.75Z" fill="#A8A8A8"/>
</g>
<rect x="132.5" y="267" width="421" height="47" rx="9.5" fill="white"/>
<rect x="132.5" y="267" width="421" height="47" rx="9.5" stroke="#D1D1D1"/>
<path d="M154.761 297.5V282.955H159.676C160.817 282.955 161.75 283.161 162.474 283.572C163.204 283.98 163.743 284.531 164.094 285.227C164.444 285.923 164.619 286.7 164.619 287.557C164.619 288.414 164.444 289.193 164.094 289.893C163.748 290.594 163.213 291.153 162.489 291.57C161.764 291.982 160.836 292.188 159.705 292.188H156.182V290.625H159.648C160.429 290.625 161.056 290.49 161.53 290.22C162.003 289.95 162.347 289.586 162.56 289.126C162.777 288.662 162.886 288.139 162.886 287.557C162.886 286.974 162.777 286.454 162.56 285.994C162.347 285.535 162.001 285.175 161.523 284.915C161.045 284.65 160.41 284.517 159.619 284.517H156.523V297.5H154.761ZM170.44 297.756C169.748 297.756 169.121 297.625 168.558 297.365C167.994 297.1 167.547 296.719 167.215 296.222C166.884 295.72 166.718 295.114 166.718 294.403C166.718 293.778 166.841 293.272 167.087 292.884C167.334 292.491 167.663 292.183 168.075 291.96C168.487 291.738 168.941 291.572 169.438 291.463C169.94 291.349 170.444 291.259 170.951 291.193C171.614 291.108 172.151 291.044 172.563 291.001C172.98 290.954 173.283 290.876 173.472 290.767C173.666 290.658 173.763 290.469 173.763 290.199V290.142C173.763 289.441 173.572 288.897 173.188 288.509C172.809 288.12 172.234 287.926 171.462 287.926C170.662 287.926 170.035 288.101 169.58 288.452C169.126 288.802 168.806 289.176 168.621 289.574L167.031 289.006C167.315 288.343 167.693 287.827 168.167 287.457C168.645 287.083 169.166 286.823 169.729 286.676C170.298 286.525 170.856 286.449 171.406 286.449C171.756 286.449 172.158 286.491 172.613 286.577C173.072 286.657 173.515 286.825 173.941 287.081C174.372 287.337 174.729 287.723 175.013 288.239C175.298 288.755 175.44 289.446 175.44 290.312V297.5H173.763V296.023H173.678C173.565 296.259 173.375 296.513 173.11 296.783C172.845 297.053 172.492 297.282 172.052 297.472C171.612 297.661 171.074 297.756 170.44 297.756ZM170.695 296.25C171.358 296.25 171.917 296.12 172.371 295.859C172.831 295.599 173.176 295.263 173.408 294.851C173.645 294.439 173.763 294.006 173.763 293.551V292.017C173.692 292.102 173.536 292.18 173.295 292.251C173.058 292.318 172.783 292.377 172.471 292.429C172.163 292.476 171.862 292.519 171.569 292.557C171.28 292.59 171.046 292.618 170.866 292.642C170.43 292.699 170.023 292.791 169.644 292.919C169.27 293.042 168.967 293.229 168.735 293.48C168.508 293.726 168.394 294.062 168.394 294.489C168.394 295.071 168.61 295.511 169.04 295.81C169.476 296.103 170.028 296.25 170.695 296.25ZM186.226 289.034L184.721 289.46C184.626 289.209 184.486 288.965 184.301 288.729C184.122 288.487 183.875 288.288 183.563 288.132C183.25 287.976 182.85 287.898 182.363 287.898C181.695 287.898 181.139 288.052 180.694 288.359C180.253 288.662 180.033 289.048 180.033 289.517C180.033 289.934 180.185 290.263 180.488 290.504C180.791 290.746 181.264 290.947 181.908 291.108L183.527 291.506C184.503 291.742 185.23 292.105 185.708 292.592C186.186 293.075 186.425 293.698 186.425 294.46C186.425 295.085 186.245 295.644 185.885 296.136C185.53 296.629 185.033 297.017 184.394 297.301C183.755 297.585 183.011 297.727 182.164 297.727C181.051 297.727 180.13 297.486 179.401 297.003C178.672 296.52 178.21 295.814 178.016 294.886L179.607 294.489C179.758 295.076 180.045 295.516 180.466 295.81C180.892 296.103 181.449 296.25 182.135 296.25C182.917 296.25 183.537 296.084 183.996 295.753C184.46 295.417 184.692 295.014 184.692 294.545C184.692 294.167 184.56 293.849 184.294 293.594C184.029 293.333 183.622 293.139 183.073 293.011L181.255 292.585C180.256 292.348 179.522 291.982 179.053 291.484C178.589 290.982 178.357 290.355 178.357 289.602C178.357 288.987 178.53 288.442 178.875 287.969C179.226 287.495 179.702 287.124 180.303 286.854C180.909 286.584 181.596 286.449 182.363 286.449C183.442 286.449 184.29 286.686 184.905 287.159C185.525 287.633 185.966 288.258 186.226 289.034ZM196.675 289.034L195.17 289.46C195.075 289.209 194.935 288.965 194.751 288.729C194.571 288.487 194.325 288.288 194.012 288.132C193.7 287.976 193.299 287.898 192.812 287.898C192.144 287.898 191.588 288.052 191.143 288.359C190.702 288.662 190.482 289.048 190.482 289.517C190.482 289.934 190.634 290.263 190.937 290.504C191.24 290.746 191.713 290.947 192.357 291.108L193.977 291.506C194.952 291.742 195.679 292.105 196.157 292.592C196.635 293.075 196.874 293.698 196.874 294.46C196.874 295.085 196.694 295.644 196.335 296.136C195.979 296.629 195.482 297.017 194.843 297.301C194.204 297.585 193.46 297.727 192.613 297.727C191.5 297.727 190.579 297.486 189.85 297.003C189.121 296.52 188.659 295.814 188.465 294.886L190.056 294.489C190.208 295.076 190.494 295.516 190.915 295.81C191.342 296.103 191.898 296.25 192.585 296.25C193.366 296.25 193.986 296.084 194.445 295.753C194.909 295.417 195.141 295.014 195.141 294.545C195.141 294.167 195.009 293.849 194.744 293.594C194.478 293.333 194.071 293.139 193.522 293.011L191.704 292.585C190.705 292.348 189.971 291.982 189.502 291.484C189.038 290.982 188.806 290.355 188.806 289.602C188.806 288.987 188.979 288.442 189.325 287.969C189.675 287.495 190.151 287.124 190.752 286.854C191.358 286.584 192.045 286.449 192.812 286.449C193.891 286.449 194.739 286.686 195.354 287.159C195.975 287.633 196.415 288.258 196.675 289.034ZM201.869 297.5L198.545 286.591H200.306L202.664 294.943H202.778L205.108 286.591H206.897L209.199 294.915H209.312L211.67 286.591H213.431L210.108 297.5H208.46L206.074 289.119H205.903L203.517 297.5H201.869ZM219.708 297.727C218.723 297.727 217.859 297.493 217.116 297.024C216.377 296.555 215.799 295.9 215.383 295.057C214.971 294.214 214.765 293.229 214.765 292.102C214.765 290.966 214.971 289.974 215.383 289.126C215.799 288.279 216.377 287.621 217.116 287.152C217.859 286.683 218.723 286.449 219.708 286.449C220.693 286.449 221.555 286.683 222.293 287.152C223.037 287.621 223.614 288.279 224.026 289.126C224.443 289.974 224.651 290.966 224.651 292.102C224.651 293.229 224.443 294.214 224.026 295.057C223.614 295.9 223.037 296.555 222.293 297.024C221.555 297.493 220.693 297.727 219.708 297.727ZM219.708 296.222C220.456 296.222 221.072 296.03 221.555 295.646C222.038 295.263 222.395 294.759 222.627 294.134C222.859 293.509 222.975 292.831 222.975 292.102C222.975 291.373 222.859 290.694 222.627 290.064C222.395 289.434 222.038 288.925 221.555 288.537C221.072 288.149 220.456 287.955 219.708 287.955C218.96 287.955 218.344 288.149 217.862 288.537C217.379 288.925 217.021 289.434 216.789 290.064C216.557 290.694 216.441 291.373 216.441 292.102C216.441 292.831 216.557 293.509 216.789 294.134C217.021 294.759 217.379 295.263 217.862 295.646C218.344 296.03 218.96 296.222 219.708 296.222ZM227.21 297.5V286.591H228.829V288.239H228.943C229.142 287.699 229.502 287.261 230.022 286.925C230.543 286.589 231.13 286.42 231.784 286.42C231.907 286.42 232.061 286.423 232.245 286.428C232.43 286.432 232.57 286.439 232.664 286.449V288.153C232.608 288.139 232.477 288.118 232.274 288.089C232.075 288.056 231.864 288.04 231.642 288.04C231.111 288.04 230.638 288.151 230.221 288.374C229.809 288.591 229.483 288.894 229.241 289.283C229.004 289.666 228.886 290.104 228.886 290.597V297.5H227.21ZM238.439 297.727C237.529 297.727 236.727 297.498 236.031 297.038C235.335 296.574 234.79 295.921 234.397 295.078C234.004 294.231 233.808 293.229 233.808 292.074C233.808 290.928 234.004 289.934 234.397 289.091C234.79 288.248 235.337 287.597 236.038 287.138C236.739 286.679 237.548 286.449 238.467 286.449C239.177 286.449 239.738 286.567 240.15 286.804C240.567 287.036 240.884 287.301 241.102 287.599C241.324 287.893 241.497 288.134 241.62 288.324H241.762V282.955H243.439V297.5H241.819V295.824H241.62C241.497 296.023 241.322 296.274 241.095 296.577C240.868 296.875 240.543 297.143 240.122 297.379C239.7 297.611 239.139 297.727 238.439 297.727ZM238.666 296.222C239.338 296.222 239.906 296.046 240.37 295.696C240.834 295.341 241.187 294.851 241.429 294.226C241.67 293.596 241.791 292.869 241.791 292.045C241.791 291.231 241.672 290.518 241.436 289.908C241.199 289.292 240.849 288.814 240.385 288.473C239.921 288.127 239.348 287.955 238.666 287.955C237.956 287.955 237.364 288.137 236.89 288.501C236.422 288.861 236.069 289.351 235.832 289.972C235.6 290.587 235.484 291.278 235.484 292.045C235.484 292.822 235.602 293.527 235.839 294.162C236.081 294.792 236.436 295.294 236.904 295.668C237.378 296.037 237.965 296.222 238.666 296.222Z" fill="#D1D1D1"/>
<mask id="mask1_301_1253" style="mask-type:alpha" maskUnits="userSpaceOnUse" x="509" y="278" width="24" height="25">
<rect x="509" y="278.5" width="24" height="24" fill="#D9D9D9"/>
</mask>
<g mask="url(#mask1_301_1253)">
<path d="M515 300.5C514.45 300.5 513.979 300.304 513.588 299.913C513.196 299.521 513 299.05 513 298.5V288.5C513 287.95 513.196 287.479 513.588 287.088C513.979 286.696 514.45 286.5 515 286.5H516V284.5C516 283.117 516.488 281.938 517.463 280.962C518.438 279.987 519.617 279.5 521 279.5C522.383 279.5 523.562 279.987 524.538 280.962C525.513 281.938 526 283.117 526 284.5V286.5H527C527.55 286.5 528.021 286.696 528.413 287.088C528.804 287.479 529 287.95 529 288.5V298.5C529 299.05 528.804 299.521 528.413 299.913C528.021 300.304 527.55 300.5 527 300.5H515ZM515 298.5H527V288.5H515V298.5ZM521 295.5C521.55 295.5 522.021 295.304 522.413 294.913C522.804 294.521 523 294.05 523 293.5C523 292.95 522.804 292.479 522.413 292.088C522.021 291.696 521.55 291.5 521 291.5C520.45 291.5 519.979 291.696 519.588 292.088C519.196 292.479 519 292.95 519 293.5C519 294.05 519.196 294.521 519.588 294.913C519.979 295.304 520.45 295.5 521 295.5ZM518 286.5H524V284.5C524 283.667 523.708 282.958 523.125 282.375C522.542 281.792 521.833 281.5 521 281.5C520.167 281.5 519.458 281.792 518.875 282.375C518.292 282.958 518 283.667 518 284.5V286.5Z" fill="#A8A8A8"/>
</g>
<rect x="175" y="362.5" width="16" height="16" rx="3" stroke="#2A3647" stroke-width="2"/>
<path d="M204.409 376V364.364H208.341C209.25 364.364 209.996 364.519 210.58 364.83C211.163 365.136 211.595 365.559 211.875 366.097C212.155 366.634 212.295 367.246 212.295 367.932C212.295 368.617 212.155 369.225 211.875 369.756C211.595 370.286 211.165 370.703 210.585 371.006C210.006 371.305 209.265 371.455 208.364 371.455H205.182V370.182H208.318C208.939 370.182 209.439 370.091 209.818 369.909C210.201 369.727 210.477 369.47 210.648 369.136C210.822 368.799 210.909 368.398 210.909 367.932C210.909 367.466 210.822 367.059 210.648 366.71C210.473 366.362 210.195 366.093 209.812 365.903C209.43 365.71 208.924 365.614 208.295 365.614H205.818V376H204.409ZM209.886 370.773L212.75 376H211.114L208.295 370.773H209.886ZM218.027 376.182C217.186 376.182 216.461 375.996 215.851 375.625C215.245 375.25 214.777 374.727 214.447 374.057C214.122 373.383 213.959 372.598 213.959 371.705C213.959 370.811 214.122 370.023 214.447 369.341C214.777 368.655 215.235 368.121 215.822 367.739C216.413 367.352 217.103 367.159 217.891 367.159C218.345 367.159 218.794 367.235 219.237 367.386C219.68 367.538 220.084 367.784 220.447 368.125C220.811 368.462 221.101 368.909 221.317 369.466C221.533 370.023 221.641 370.708 221.641 371.523V372.091H214.913V370.932H220.277C220.277 370.439 220.179 370 219.982 369.614C219.788 369.227 219.512 368.922 219.152 368.699C218.796 368.475 218.375 368.364 217.891 368.364C217.357 368.364 216.894 368.496 216.504 368.761C216.118 369.023 215.821 369.364 215.612 369.784C215.404 370.205 215.3 370.655 215.3 371.136V371.909C215.3 372.568 215.413 373.127 215.641 373.585C215.872 374.04 216.192 374.386 216.601 374.625C217.01 374.86 217.485 374.977 218.027 374.977C218.379 374.977 218.697 374.928 218.982 374.83C219.269 374.727 219.518 374.576 219.726 374.375C219.934 374.17 220.095 373.917 220.209 373.614L221.504 373.977C221.368 374.417 221.139 374.803 220.817 375.136C220.495 375.466 220.097 375.723 219.624 375.909C219.15 376.091 218.618 376.182 218.027 376.182ZM223.68 376V367.273H224.976V368.636H225.089C225.271 368.17 225.565 367.809 225.97 367.551C226.375 367.29 226.862 367.159 227.43 367.159C228.006 367.159 228.485 367.29 228.868 367.551C229.254 367.809 229.555 368.17 229.771 368.636H229.862C230.086 368.186 230.421 367.828 230.868 367.562C231.315 367.294 231.851 367.159 232.476 367.159C233.256 367.159 233.894 367.403 234.391 367.892C234.887 368.377 235.135 369.133 235.135 370.159V376H233.794V370.159C233.794 369.515 233.618 369.055 233.266 368.778C232.913 368.502 232.499 368.364 232.021 368.364C231.408 368.364 230.932 368.549 230.595 368.92C230.258 369.288 230.089 369.754 230.089 370.318V376H228.726V370.023C228.726 369.527 228.565 369.127 228.243 368.824C227.921 368.517 227.506 368.364 226.999 368.364C226.65 368.364 226.324 368.456 226.021 368.642C225.722 368.828 225.48 369.085 225.294 369.415C225.112 369.741 225.021 370.117 225.021 370.545V376H223.68ZM241.246 376.182C240.405 376.182 239.679 375.996 239.07 375.625C238.464 375.25 237.996 374.727 237.666 374.057C237.34 373.383 237.178 372.598 237.178 371.705C237.178 370.811 237.34 370.023 237.666 369.341C237.996 368.655 238.454 368.121 239.041 367.739C239.632 367.352 240.321 367.159 241.109 367.159C241.564 367.159 242.013 367.235 242.456 367.386C242.899 367.538 243.303 367.784 243.666 368.125C244.03 368.462 244.32 368.909 244.536 369.466C244.751 370.023 244.859 370.708 244.859 371.523V372.091H238.132V370.932H243.496C243.496 370.439 243.397 370 243.2 369.614C243.007 369.227 242.731 368.922 242.371 368.699C242.015 368.475 241.594 368.364 241.109 368.364C240.575 368.364 240.113 368.496 239.723 368.761C239.337 369.023 239.039 369.364 238.831 369.784C238.623 370.205 238.518 370.655 238.518 371.136V371.909C238.518 372.568 238.632 373.127 238.859 373.585C239.09 374.04 239.411 374.386 239.82 374.625C240.229 374.86 240.704 374.977 241.246 374.977C241.598 374.977 241.916 374.928 242.2 374.83C242.488 374.727 242.736 374.576 242.945 374.375C243.153 374.17 243.314 373.917 243.428 373.614L244.723 373.977C244.587 374.417 244.357 374.803 244.036 375.136C243.714 375.466 243.316 375.723 242.842 375.909C242.369 376.091 241.837 376.182 241.246 376.182ZM246.899 376V367.273H248.195V368.636H248.308C248.49 368.17 248.784 367.809 249.189 367.551C249.594 367.29 250.081 367.159 250.649 367.159C251.225 367.159 251.704 367.29 252.087 367.551C252.473 367.809 252.774 368.17 252.99 368.636H253.081C253.304 368.186 253.64 367.828 254.087 367.562C254.534 367.294 255.07 367.159 255.695 367.159C256.475 367.159 257.113 367.403 257.609 367.892C258.106 368.377 258.354 369.133 258.354 370.159V376H257.013V370.159C257.013 369.515 256.837 369.055 256.484 368.778C256.132 368.502 255.717 368.364 255.24 368.364C254.626 368.364 254.151 368.549 253.814 368.92C253.477 369.288 253.308 369.754 253.308 370.318V376H251.945V370.023C251.945 369.527 251.784 369.127 251.462 368.824C251.14 368.517 250.725 368.364 250.217 368.364C249.869 368.364 249.543 368.456 249.24 368.642C248.941 368.828 248.698 369.085 248.513 369.415C248.331 369.741 248.24 370.117 248.24 370.545V376H246.899ZM260.987 376V364.364H262.328V368.659H262.442C262.54 368.508 262.677 368.314 262.851 368.08C263.029 367.841 263.283 367.629 263.612 367.443C263.946 367.254 264.396 367.159 264.964 367.159C265.699 367.159 266.347 367.343 266.908 367.71C267.468 368.078 267.906 368.598 268.22 369.273C268.535 369.947 268.692 370.742 268.692 371.659C268.692 372.583 268.535 373.384 268.22 374.062C267.906 374.737 267.47 375.259 266.913 375.631C266.357 375.998 265.714 376.182 264.987 376.182C264.427 376.182 263.978 376.089 263.641 375.903C263.304 375.714 263.044 375.5 262.862 375.261C262.68 375.019 262.54 374.818 262.442 374.659H262.283V376H260.987ZM262.305 371.636C262.305 372.295 262.402 372.877 262.595 373.381C262.788 373.881 263.071 374.273 263.442 374.557C263.813 374.837 264.268 374.977 264.805 374.977C265.366 374.977 265.834 374.83 266.209 374.534C266.588 374.235 266.872 373.833 267.061 373.33C267.254 372.822 267.351 372.258 267.351 371.636C267.351 371.023 267.256 370.47 267.067 369.977C266.881 369.481 266.599 369.089 266.22 368.801C265.845 368.509 265.374 368.364 264.805 368.364C264.26 368.364 263.802 368.502 263.43 368.778C263.059 369.051 262.779 369.434 262.589 369.926C262.4 370.415 262.305 370.985 262.305 371.636ZM274.402 376.182C273.561 376.182 272.836 375.996 272.226 375.625C271.62 375.25 271.152 374.727 270.822 374.057C270.497 373.383 270.334 372.598 270.334 371.705C270.334 370.811 270.497 370.023 270.822 369.341C271.152 368.655 271.61 368.121 272.197 367.739C272.788 367.352 273.478 367.159 274.266 367.159C274.72 367.159 275.169 367.235 275.612 367.386C276.055 367.538 276.459 367.784 276.822 368.125C277.186 368.462 277.476 368.909 277.692 369.466C277.908 370.023 278.016 370.708 278.016 371.523V372.091H271.288V370.932H276.652C276.652 370.439 276.554 370 276.357 369.614C276.163 369.227 275.887 368.922 275.527 368.699C275.171 368.475 274.75 368.364 274.266 368.364C273.732 368.364 273.269 368.496 272.879 368.761C272.493 369.023 272.196 369.364 271.987 369.784C271.779 370.205 271.675 370.655 271.675 371.136V371.909C271.675 372.568 271.788 373.127 272.016 373.585C272.247 374.04 272.567 374.386 272.976 374.625C273.385 374.86 273.86 374.977 274.402 374.977C274.754 374.977 275.072 374.928 275.357 374.83C275.644 374.727 275.893 374.576 276.101 374.375C276.309 374.17 276.47 373.917 276.584 373.614L277.879 373.977C277.743 374.417 277.514 374.803 277.192 375.136C276.87 375.466 276.472 375.723 275.999 375.909C275.525 376.091 274.993 376.182 274.402 376.182ZM280.055 376V367.273H281.351V368.591H281.442C281.601 368.159 281.889 367.809 282.305 367.54C282.722 367.271 283.192 367.136 283.714 367.136C283.813 367.136 283.936 367.138 284.084 367.142C284.232 367.146 284.343 367.152 284.419 367.159V368.523C284.374 368.511 284.269 368.494 284.107 368.472C283.947 368.445 283.779 368.432 283.601 368.432C283.177 368.432 282.798 368.521 282.464 368.699C282.135 368.873 281.874 369.116 281.68 369.426C281.491 369.733 281.396 370.083 281.396 370.477V376H280.055ZM290.509 376V367.273H291.804V368.636H291.918C292.099 368.17 292.393 367.809 292.798 367.551C293.204 367.29 293.69 367.159 294.259 367.159C294.834 367.159 295.313 367.29 295.696 367.551C296.082 367.809 296.384 368.17 296.599 368.636H296.69C296.914 368.186 297.249 367.828 297.696 367.562C298.143 367.294 298.679 367.159 299.304 367.159C300.084 367.159 300.723 367.403 301.219 367.892C301.715 368.377 301.963 369.133 301.963 370.159V376H300.622V370.159C300.622 369.515 300.446 369.055 300.094 368.778C299.741 368.502 299.327 368.364 298.849 368.364C298.236 368.364 297.76 368.549 297.423 368.92C297.086 369.288 296.918 369.754 296.918 370.318V376H295.554V370.023C295.554 369.527 295.393 369.127 295.071 368.824C294.749 368.517 294.334 368.364 293.827 368.364C293.478 368.364 293.152 368.456 292.849 368.642C292.55 368.828 292.308 369.085 292.122 369.415C291.94 369.741 291.849 370.117 291.849 370.545V376H290.509ZM308.074 376.182C307.233 376.182 306.508 375.996 305.898 375.625C305.292 375.25 304.824 374.727 304.494 374.057C304.169 373.383 304.006 372.598 304.006 371.705C304.006 370.811 304.169 370.023 304.494 369.341C304.824 368.655 305.282 368.121 305.869 367.739C306.46 367.352 307.15 367.159 307.938 367.159C308.392 367.159 308.841 367.235 309.284 367.386C309.727 367.538 310.131 367.784 310.494 368.125C310.858 368.462 311.148 368.909 311.364 369.466C311.58 370.023 311.688 370.708 311.688 371.523V372.091H304.96V370.932H310.324C310.324 370.439 310.225 370 310.028 369.614C309.835 369.227 309.559 368.922 309.199 368.699C308.843 368.475 308.422 368.364 307.938 368.364C307.403 368.364 306.941 368.496 306.551 368.761C306.165 369.023 305.867 369.364 305.659 369.784C305.451 370.205 305.347 370.655 305.347 371.136V371.909C305.347 372.568 305.46 373.127 305.688 373.585C305.919 374.04 306.239 374.386 306.648 374.625C307.057 374.86 307.532 374.977 308.074 374.977C308.426 374.977 308.744 374.928 309.028 374.83C309.316 374.727 309.564 374.576 309.773 374.375C309.981 374.17 310.142 373.917 310.256 373.614L311.551 373.977C311.415 374.417 311.186 374.803 310.864 375.136C310.542 375.466 310.144 375.723 309.67 375.909C309.197 376.091 308.665 376.182 308.074 376.182Z" fill="black"/>
<rect x="182" y="414.5" width="110" height="48" rx="8" fill="#2A3647"/>
<path d="M207.327 446V430.727H210.556V443.338H217.104V446H207.327ZM224.358 446.224C223.2 446.224 222.198 445.978 221.353 445.485C220.513 444.988 219.864 444.297 219.407 443.412C218.949 442.522 218.72 441.491 218.72 440.317C218.72 439.134 218.949 438.1 219.407 437.215C219.864 436.325 220.513 435.634 221.353 435.142C222.198 434.645 223.2 434.396 224.358 434.396C225.517 434.396 226.516 434.645 227.356 435.142C228.201 435.634 228.853 436.325 229.31 437.215C229.767 438.1 229.996 439.134 229.996 440.317C229.996 441.491 229.767 442.522 229.31 443.412C228.853 444.297 228.201 444.988 227.356 445.485C226.516 445.978 225.517 446.224 224.358 446.224ZM224.373 443.763C224.9 443.763 225.34 443.614 225.693 443.315C226.046 443.012 226.312 442.599 226.491 442.077C226.675 441.555 226.767 440.961 226.767 440.295C226.767 439.629 226.675 439.035 226.491 438.513C226.312 437.991 226.046 437.578 225.693 437.275C225.34 436.972 224.9 436.82 224.373 436.82C223.841 436.82 223.394 436.972 223.031 437.275C222.673 437.578 222.402 437.991 222.218 438.513C222.039 439.035 221.949 439.629 221.949 440.295C221.949 440.961 222.039 441.555 222.218 442.077C222.402 442.599 222.673 443.012 223.031 443.315C223.394 443.614 223.841 443.763 224.373 443.763ZM237.222 450.534C236.193 450.534 235.311 450.392 234.575 450.109C233.844 449.831 233.262 449.45 232.83 448.968C232.397 448.486 232.116 447.944 231.987 447.342L234.925 446.947C235.015 447.176 235.157 447.39 235.35 447.588C235.544 447.787 235.8 447.946 236.119 448.066C236.442 448.19 236.834 448.252 237.297 448.252C237.988 448.252 238.557 448.083 239.005 447.745C239.457 447.412 239.683 446.853 239.683 446.067V443.972H239.549C239.41 444.29 239.201 444.591 238.922 444.874C238.644 445.157 238.286 445.388 237.849 445.567C237.411 445.746 236.889 445.836 236.283 445.836C235.422 445.836 234.639 445.637 233.934 445.239C233.233 444.837 232.673 444.223 232.256 443.397C231.843 442.567 231.637 441.518 231.637 440.25C231.637 438.953 231.848 437.869 232.271 436.999C232.693 436.129 233.255 435.478 233.956 435.045C234.662 434.613 235.435 434.396 236.275 434.396C236.916 434.396 237.453 434.506 237.886 434.724C238.318 434.938 238.666 435.207 238.93 435.53C239.198 435.848 239.405 436.161 239.549 436.469H239.668V434.545H242.823V446.112C242.823 447.086 242.584 447.902 242.107 448.558C241.63 449.214 240.968 449.706 240.123 450.034C239.283 450.368 238.316 450.534 237.222 450.534ZM237.289 443.45C237.801 443.45 238.234 443.323 238.587 443.069C238.945 442.811 239.218 442.443 239.407 441.966C239.601 441.483 239.698 440.907 239.698 440.235C239.698 439.564 239.604 438.983 239.415 438.49C239.226 437.993 238.952 437.608 238.594 437.335C238.236 437.061 237.801 436.924 237.289 436.924C236.767 436.924 236.327 437.066 235.969 437.349C235.611 437.628 235.34 438.016 235.157 438.513C234.973 439.01 234.881 439.584 234.881 440.235C234.881 440.897 234.973 441.468 235.157 441.951C235.345 442.428 235.616 442.798 235.969 443.062C236.327 443.32 236.767 443.45 237.289 443.45ZM250.211 446V434.545H253.388V446H250.211ZM251.807 433.069C251.335 433.069 250.93 432.912 250.591 432.599C250.258 432.281 250.092 431.901 250.092 431.458C250.092 431.021 250.258 430.645 250.591 430.332C250.93 430.014 251.335 429.855 251.807 429.855C252.279 429.855 252.682 430.014 253.015 430.332C253.353 430.645 253.522 431.021 253.522 431.458C253.522 431.901 253.353 432.281 253.015 432.599C252.682 432.912 252.279 433.069 251.807 433.069ZM259.11 439.378V446H255.933V434.545H258.96V436.566H259.095C259.348 435.9 259.773 435.373 260.37 434.985C260.967 434.593 261.69 434.396 262.54 434.396C263.335 434.396 264.029 434.57 264.621 434.918C265.212 435.266 265.672 435.763 266 436.41C266.328 437.051 266.492 437.817 266.492 438.707V446H263.316V439.273C263.321 438.572 263.142 438.026 262.779 437.633C262.416 437.235 261.916 437.036 261.28 437.036C260.852 437.036 260.474 437.128 260.146 437.312C259.823 437.496 259.57 437.765 259.386 438.118C259.207 438.466 259.115 438.886 259.11 439.378Z" fill="white"/>
<rect x="327.5" y="415" width="176" height="47" rx="7.5" fill="white"/>
<rect x="327.5" y="415" width="176" height="47" rx="7.5" stroke="#2A3647"/>
<path d="M362.455 435.664C362.35 435.301 362.203 434.98 362.015 434.702C361.826 434.419 361.594 434.18 361.321 433.986C361.053 433.787 360.744 433.636 360.396 433.531C360.053 433.427 359.673 433.375 359.255 433.375C358.475 433.375 357.789 433.569 357.197 433.956C356.61 434.344 356.153 434.908 355.825 435.649C355.497 436.385 355.333 437.285 355.333 438.349C355.333 439.413 355.494 440.317 355.817 441.063C356.141 441.809 356.598 442.378 357.19 442.771C357.781 443.159 358.48 443.353 359.285 443.353C360.016 443.353 360.64 443.223 361.157 442.965C361.679 442.701 362.077 442.331 362.35 441.854C362.629 441.376 362.768 440.812 362.768 440.161L363.424 440.258H359.487V437.827H365.877V439.751C365.877 441.093 365.594 442.246 365.027 443.211C364.461 444.17 363.68 444.911 362.686 445.433C361.691 445.95 360.553 446.209 359.27 446.209C357.838 446.209 356.581 445.893 355.497 445.262C354.413 444.625 353.568 443.723 352.961 442.555C352.36 441.381 352.059 439.989 352.059 438.379C352.059 437.141 352.238 436.037 352.596 435.067C352.959 434.093 353.466 433.268 354.117 432.592C354.768 431.915 355.527 431.401 356.392 431.048C357.257 430.695 358.194 430.518 359.203 430.518C360.068 430.518 360.874 430.645 361.619 430.899C362.365 431.147 363.026 431.5 363.603 431.958C364.185 432.415 364.659 432.96 365.027 433.591C365.395 434.217 365.631 434.908 365.736 435.664H362.455ZM375.589 441.123V434.545H378.766V446H375.716V443.919H375.596C375.338 444.591 374.908 445.13 374.306 445.538C373.71 445.945 372.981 446.149 372.121 446.149C371.356 446.149 370.682 445.975 370.1 445.627C369.519 445.279 369.064 444.784 368.736 444.143C368.412 443.502 368.248 442.734 368.243 441.839V434.545H371.42V441.272C371.425 441.948 371.607 442.483 371.965 442.875C372.323 443.268 372.802 443.464 373.404 443.464C373.787 443.464 374.145 443.377 374.478 443.203C374.811 443.025 375.079 442.761 375.283 442.413C375.492 442.065 375.594 441.635 375.589 441.123ZM386.527 446.224C385.349 446.224 384.335 445.985 383.484 445.508C382.639 445.026 381.988 444.344 381.531 443.464C381.073 442.58 380.844 441.533 380.844 440.325C380.844 439.147 381.073 438.113 381.531 437.223C381.988 436.333 382.632 435.639 383.462 435.142C384.297 434.645 385.277 434.396 386.4 434.396C387.156 434.396 387.859 434.518 388.511 434.762C389.167 435 389.739 435.361 390.226 435.843C390.718 436.325 391.101 436.932 391.374 437.663C391.648 438.388 391.784 439.239 391.784 440.213V441.086H382.112V439.117H388.794C388.794 438.659 388.695 438.254 388.496 437.901C388.297 437.548 388.021 437.272 387.668 437.074C387.32 436.87 386.915 436.768 386.452 436.768C385.97 436.768 385.543 436.88 385.17 437.103C384.802 437.322 384.513 437.618 384.305 437.991C384.096 438.359 383.989 438.769 383.984 439.221V441.093C383.984 441.66 384.088 442.15 384.297 442.562C384.511 442.975 384.812 443.293 385.2 443.517C385.587 443.74 386.047 443.852 386.579 443.852C386.932 443.852 387.255 443.803 387.549 443.703C387.842 443.604 388.093 443.455 388.302 443.256C388.511 443.057 388.67 442.813 388.779 442.525L391.717 442.719C391.568 443.425 391.262 444.041 390.8 444.568C390.343 445.09 389.751 445.498 389.025 445.791C388.304 446.08 387.472 446.224 386.527 446.224ZM403.388 437.812L400.48 437.991C400.43 437.742 400.323 437.518 400.159 437.32C399.995 437.116 399.779 436.954 399.51 436.835C399.247 436.711 398.931 436.648 398.563 436.648C398.071 436.648 397.656 436.753 397.318 436.962C396.98 437.165 396.811 437.439 396.811 437.782C396.811 438.055 396.92 438.287 397.139 438.475C397.358 438.664 397.733 438.816 398.265 438.93L400.338 439.348C401.452 439.577 402.282 439.945 402.829 440.452C403.376 440.959 403.649 441.625 403.649 442.45C403.649 443.201 403.428 443.86 402.985 444.426C402.548 444.993 401.946 445.436 401.181 445.754C400.42 446.067 399.543 446.224 398.548 446.224C397.032 446.224 395.824 445.908 394.924 445.277C394.029 444.64 393.505 443.775 393.35 442.681L396.475 442.517C396.57 442.98 396.798 443.333 397.161 443.576C397.524 443.815 397.989 443.934 398.556 443.934C399.113 443.934 399.56 443.827 399.898 443.614C400.241 443.395 400.415 443.114 400.42 442.771C400.415 442.483 400.293 442.246 400.055 442.062C399.816 441.874 399.448 441.729 398.951 441.63L396.967 441.235C395.849 441.011 395.016 440.623 394.469 440.071C393.927 439.52 393.656 438.816 393.656 437.961C393.656 437.225 393.855 436.591 394.253 436.059C394.656 435.527 395.22 435.117 395.946 434.829C396.676 434.54 397.532 434.396 398.511 434.396C399.958 434.396 401.096 434.702 401.926 435.314C402.762 435.925 403.249 436.758 403.388 437.812ZM411.742 434.545V436.932H404.844V434.545H411.742ZM406.41 431.801H409.587V442.48C409.587 442.773 409.632 443.002 409.721 443.166C409.811 443.325 409.935 443.437 410.094 443.502C410.258 443.566 410.447 443.599 410.661 443.599C410.81 443.599 410.959 443.586 411.108 443.561C411.258 443.532 411.372 443.509 411.451 443.494L411.951 445.858C411.792 445.908 411.568 445.965 411.28 446.03C410.992 446.099 410.641 446.142 410.228 446.157C409.463 446.186 408.792 446.085 408.215 445.851C407.643 445.617 407.198 445.254 406.88 444.762C406.562 444.27 406.405 443.648 406.41 442.898V431.801ZM418.732 446V430.727H421.961V443.338H428.508V446H418.732ZM435.763 446.224C434.604 446.224 433.602 445.978 432.757 445.485C431.917 444.988 431.268 444.297 430.811 443.412C430.353 442.522 430.125 441.491 430.125 440.317C430.125 439.134 430.353 438.1 430.811 437.215C431.268 436.325 431.917 435.634 432.757 435.142C433.602 434.645 434.604 434.396 435.763 434.396C436.921 434.396 437.92 434.645 438.76 435.142C439.606 435.634 440.257 436.325 440.714 437.215C441.172 438.1 441.4 439.134 441.4 440.317C441.4 441.491 441.172 442.522 440.714 443.412C440.257 444.297 439.606 444.988 438.76 445.485C437.92 445.978 436.921 446.224 435.763 446.224ZM435.777 443.763C436.304 443.763 436.744 443.614 437.097 443.315C437.45 443.012 437.716 442.599 437.895 442.077C438.079 441.555 438.171 440.961 438.171 440.295C438.171 439.629 438.079 439.035 437.895 438.513C437.716 437.991 437.45 437.578 437.097 437.275C436.744 436.972 436.304 436.82 435.777 436.82C435.245 436.82 434.798 436.972 434.435 437.275C434.077 437.578 433.806 437.991 433.622 438.513C433.443 439.035 433.354 439.629 433.354 440.295C433.354 440.961 433.443 441.555 433.622 442.077C433.806 442.599 434.077 443.012 434.435 443.315C434.798 443.614 435.245 443.763 435.777 443.763ZM448.627 450.534C447.597 450.534 446.715 450.392 445.979 450.109C445.248 449.831 444.667 449.45 444.234 448.968C443.802 448.486 443.521 447.944 443.391 447.342L446.33 446.947C446.419 447.176 446.561 447.39 446.755 447.588C446.949 447.787 447.205 447.946 447.523 448.066C447.846 448.19 448.239 448.252 448.701 448.252C449.392 448.252 449.961 448.083 450.409 447.745C450.861 447.412 451.087 446.853 451.087 446.067V443.972H450.953C450.814 444.29 450.605 444.591 450.327 444.874C450.048 445.157 449.69 445.388 449.253 445.567C448.815 445.746 448.293 445.836 447.687 445.836C446.827 445.836 446.044 445.637 445.338 445.239C444.637 444.837 444.078 444.223 443.66 443.397C443.247 442.567 443.041 441.518 443.041 440.25C443.041 438.953 443.252 437.869 443.675 436.999C444.097 436.129 444.659 435.478 445.36 435.045C446.066 434.613 446.839 434.396 447.679 434.396C448.321 434.396 448.858 434.506 449.29 434.724C449.723 434.938 450.071 435.207 450.334 435.53C450.603 435.848 450.809 436.161 450.953 436.469H451.073V434.545H454.227V446.112C454.227 447.086 453.988 447.902 453.511 448.558C453.034 449.214 452.373 449.706 451.527 450.034C450.687 450.368 449.72 450.534 448.627 450.534ZM448.694 443.45C449.206 443.45 449.638 443.323 449.991 443.069C450.349 442.811 450.623 442.443 450.812 441.966C451.005 441.483 451.102 440.907 451.102 440.235C451.102 439.564 451.008 438.983 450.819 438.49C450.63 437.993 450.357 437.608 449.999 437.335C449.641 437.061 449.206 436.924 448.694 436.924C448.172 436.924 447.732 437.066 447.374 437.349C447.016 437.628 446.745 438.016 446.561 438.513C446.377 439.01 446.285 439.584 446.285 440.235C446.285 440.897 446.377 441.468 446.561 441.951C446.75 442.428 447.021 442.798 447.374 443.062C447.732 443.32 448.172 443.45 448.694 443.45ZM461.615 446V434.545H464.792V446H461.615ZM463.211 433.069C462.739 433.069 462.334 432.912 461.996 432.599C461.663 432.281 461.496 431.901 461.496 431.458C461.496 431.021 461.663 430.645 461.996 430.332C462.334 430.014 462.739 429.855 463.211 429.855C463.684 429.855 464.086 430.014 464.419 430.332C464.757 430.645 464.926 431.021 464.926 431.458C464.926 431.901 464.757 432.281 464.419 432.599C464.086 432.912 463.684 433.069 463.211 433.069ZM470.514 439.378V446H467.337V434.545H470.365V436.566H470.499C470.753 435.9 471.178 435.373 471.774 434.985C472.371 434.593 473.094 434.396 473.944 434.396C474.74 434.396 475.433 434.57 476.025 434.918C476.617 435.266 477.076 435.763 477.405 436.41C477.733 437.051 477.897 437.817 477.897 438.707V446H474.72V439.273C474.725 438.572 474.546 438.026 474.183 437.633C473.82 437.235 473.32 437.036 472.684 437.036C472.256 437.036 471.879 437.128 471.551 437.312C471.227 437.496 470.974 437.765 470.79 438.118C470.611 438.466 470.519 438.886 470.514 439.378Z" fill="#2A3647"/>
</g>
<defs>
<filter id="filter0_d_301_1253" x="0" y="0.5" width="686" height="527" filterUnits="userSpaceOnUse" color-interpolation-filters="sRGB">
<feFlood flood-opacity="0" result="BackgroundImageFix"/>
<feColorMatrix in="SourceAlpha" type="matrix" values="0 0 0 0 0 0 0 0 0 0 0 0 0 0 0 0 0 0 127 0" result="hardAlpha"/>
<feMorphology radius="3" operator="dilate" in="SourceAlpha" result="effect1_dropShadow_301_1253"/>
<feOffset/>
<feGaussianBlur stdDeviation="7"/>
<feComposite in2="hardAlpha" operator="out"/>
<feColorMatrix type="matrix" values="0 0 0 0 0 0 0 0 0 0 0 0 0 0 0 0 0 0 0.04 0"/>
<feBlend mode="normal" in2="BackgroundImageFix" result="effect1_dropShadow_301_1253"/>
<feBlend mode="normal" in="SourceGraphic" in2="effect1_dropShadow_301_1253" result="shape"/>
</filter>
</defs>
</svg>
