<svg width="422" height="197" viewBox="0 0 422 197" fill="none" xmlns="http://www.w3.org/2000/svg">
<rect x="0.5" y="1" width="421" height="47" rx="9.5" fill="white"/>
<rect x="0.5" y="1" width="421" height="47" rx="9.5" stroke="#D1D1D1"/>
<path d="M22.7614 31.5V16.9545H31.5398V18.517H24.5227V23.4318H31.0852V24.9943H24.5227V29.9375H31.6534V31.5H22.7614ZM34.4872 31.5V20.5909H36.1065V22.2955H36.2486C36.4759 21.7131 36.8428 21.2609 37.3494 20.9389C37.8561 20.6122 38.4645 20.4489 39.1747 20.4489C39.8944 20.4489 40.4934 20.6122 40.9716 20.9389C41.4545 21.2609 41.831 21.7131 42.1009 22.2955H42.2145C42.4938 21.732 42.9129 21.2846 43.4716 20.9531C44.0303 20.617 44.7003 20.4489 45.4815 20.4489C46.4569 20.4489 47.2547 20.7543 47.875 21.3651C48.4953 21.9711 48.8054 22.9157 48.8054 24.1989V31.5H47.1293V24.1989C47.1293 23.3939 46.9091 22.8187 46.4688 22.473C46.0284 22.1274 45.5099 21.9545 44.9134 21.9545C44.1463 21.9545 43.5521 22.1866 43.1307 22.6506C42.7093 23.1098 42.4986 23.6922 42.4986 24.3977V31.5H40.794V24.0284C40.794 23.4081 40.5928 22.9086 40.1903 22.5298C39.7879 22.1463 39.2694 21.9545 38.6349 21.9545C38.1993 21.9545 37.7921 22.0705 37.4134 22.3026C37.0393 22.5346 36.7363 22.8565 36.5043 23.2685C36.277 23.6757 36.1634 24.1468 36.1634 24.6818V31.5H34.4872ZM55.0803 31.7557C54.389 31.7557 53.7616 31.6255 53.1982 31.3651C52.6347 31.0999 52.1873 30.7188 51.8558 30.2216C51.5244 29.7197 51.3587 29.1136 51.3587 28.4034C51.3587 27.7784 51.4818 27.2718 51.728 26.8835C51.9742 26.4905 52.3033 26.1828 52.7152 25.9602C53.1271 25.7377 53.5817 25.572 54.0788 25.4631C54.5807 25.3494 55.085 25.2595 55.5916 25.1932C56.2545 25.108 56.7919 25.044 57.2038 25.0014C57.6205 24.9541 57.9235 24.8759 58.1129 24.767C58.3071 24.6581 58.4041 24.4687 58.4041 24.1989V24.142C58.4041 23.4413 58.2124 22.8968 57.8288 22.5085C57.45 22.1203 56.8748 21.9261 56.103 21.9261C55.3028 21.9261 54.6754 22.1013 54.2209 22.4517C53.7663 22.8021 53.4467 23.1761 53.2621 23.5739L51.6712 23.0057C51.9553 22.3428 52.334 21.8267 52.8075 21.4574C53.2857 21.0833 53.8066 20.8229 54.37 20.6761C54.9382 20.5246 55.4969 20.4489 56.0462 20.4489C56.3965 20.4489 56.799 20.4915 57.2536 20.5767C57.7128 20.6572 58.1555 20.8253 58.5817 21.081C59.0125 21.3366 59.37 21.7225 59.6541 22.2386C59.9382 22.7547 60.0803 23.446 60.0803 24.3125V31.5H58.4041V30.0227H58.3189C58.2053 30.2595 58.0159 30.5128 57.7507 30.7827C57.4856 31.0526 57.1328 31.2822 56.6925 31.4716C56.2521 31.661 55.7147 31.7557 55.0803 31.7557ZM55.3359 30.25C55.9988 30.25 56.5575 30.1198 57.0121 29.8594C57.4714 29.599 57.817 29.2628 58.049 28.8509C58.2857 28.4389 58.4041 28.0057 58.4041 27.5511V26.017C58.3331 26.1023 58.1768 26.1804 57.9354 26.2514C57.6986 26.3177 57.424 26.3769 57.1115 26.429C56.8037 26.4763 56.5031 26.5189 56.2095 26.5568C55.9207 26.59 55.6863 26.6184 55.5064 26.642C55.0708 26.6989 54.6636 26.7912 54.2848 26.919C53.9107 27.0421 53.6077 27.2292 53.3757 27.4801C53.1484 27.7263 53.0348 28.0625 53.0348 28.4886C53.0348 29.071 53.2502 29.5114 53.6811 29.8097C54.1167 30.1032 54.6683 30.25 55.3359 30.25ZM63.1396 31.5V20.5909H64.8157V31.5H63.1396ZM63.9918 18.7727C63.6651 18.7727 63.3834 18.6615 63.1467 18.4389C62.9147 18.2164 62.7987 17.9489 62.7987 17.6364C62.7987 17.3239 62.9147 17.0563 63.1467 16.8338C63.3834 16.6113 63.6651 16.5 63.9918 16.5C64.3185 16.5 64.5979 16.6113 64.8299 16.8338C65.0666 17.0563 65.185 17.3239 65.185 17.6364C65.185 17.9489 65.0666 18.2164 64.8299 18.4389C64.5979 18.6615 64.3185 18.7727 63.9918 18.7727ZM69.5618 16.9545V31.5H67.8857V16.9545H69.5618Z" fill="#D1D1D1"/>
<mask id="mask0_86107_6029" style="mask-type:alpha" maskUnits="userSpaceOnUse" x="377" y="12" width="24" height="25">
<rect x="377" y="12.5" width="24" height="24" fill="#D9D9D9"/>
</mask>
<g mask="url(#mask0_86107_6029)">
<path d="M381 32.5C380.45 32.5 379.979 32.3042 379.588 31.9125C379.196 31.5208 379 31.05 379 30.5V18.5C379 17.95 379.196 17.4792 379.588 17.0875C379.979 16.6958 380.45 16.5 381 16.5H397C397.55 16.5 398.021 16.6958 398.413 17.0875C398.804 17.4792 399 17.95 399 18.5V30.5C399 31.05 398.804 31.5208 398.413 31.9125C398.021 32.3042 397.55 32.5 397 32.5H381ZM397 20.5L389.525 25.175C389.442 25.225 389.354 25.2625 389.262 25.2875C389.171 25.3125 389.083 25.325 389 25.325C388.917 25.325 388.829 25.3125 388.738 25.2875C388.646 25.2625 388.558 25.225 388.475 25.175L381 20.5V30.5H397V20.5ZM389 23.5L397 18.5H381L389 23.5ZM381 20.75V19.275V19.3V19.2875V20.75Z" fill="#A8A8A8"/>
</g>
<rect x="0.5" y="81" width="421" height="47" rx="9.5" fill="white"/>
<rect x="0.5" y="81" width="421" height="47" rx="9.5" stroke="#D1D1D1"/>
<path d="M22.7614 111.5V96.9545H27.6761C28.8172 96.9545 29.75 97.1605 30.4744 97.5724C31.2036 97.9796 31.7434 98.5312 32.0938 99.2273C32.4441 99.9233 32.6193 100.7 32.6193 101.557C32.6193 102.414 32.4441 103.193 32.0938 103.893C31.7481 104.594 31.2131 105.153 30.4886 105.57C29.7642 105.982 28.8362 106.188 27.7045 106.188H24.1818V104.625H27.6477C28.429 104.625 29.0563 104.49 29.5298 104.22C30.0033 103.95 30.3466 103.586 30.5597 103.126C30.7775 102.662 30.8864 102.139 30.8864 101.557C30.8864 100.974 30.7775 100.454 30.5597 99.9943C30.3466 99.535 30.0009 99.1752 29.5227 98.9148C29.0445 98.6496 28.41 98.517 27.6193 98.517H24.5227V111.5H22.7614ZM38.4396 111.756C37.7483 111.756 37.121 111.625 36.5575 111.365C35.9941 111.1 35.5466 110.719 35.2152 110.222C34.8838 109.72 34.718 109.114 34.718 108.403C34.718 107.778 34.8411 107.272 35.0874 106.884C35.3336 106.491 35.6626 106.183 36.0746 105.96C36.4865 105.738 36.9411 105.572 37.4382 105.463C37.9401 105.349 38.4444 105.259 38.951 105.193C39.6139 105.108 40.1513 105.044 40.5632 105.001C40.9799 104.954 41.2829 104.876 41.4723 104.767C41.6664 104.658 41.7635 104.469 41.7635 104.199V104.142C41.7635 103.441 41.5717 102.897 41.1882 102.509C40.8094 102.12 40.2341 101.926 39.4624 101.926C38.6622 101.926 38.0348 102.101 37.5803 102.452C37.1257 102.802 36.8061 103.176 36.6214 103.574L35.0305 103.006C35.3146 102.343 35.6934 101.827 36.1669 101.457C36.6451 101.083 37.166 100.823 37.7294 100.676C38.2976 100.525 38.8563 100.449 39.4055 100.449C39.7559 100.449 40.1584 100.491 40.6129 100.577C41.0722 100.657 41.5149 100.825 41.9411 101.081C42.3719 101.337 42.7294 101.723 43.0135 102.239C43.2976 102.755 43.4396 103.446 43.4396 104.312V111.5H41.7635V110.023H41.6783C41.5646 110.259 41.3752 110.513 41.1101 110.783C40.8449 111.053 40.4922 111.282 40.0518 111.472C39.6115 111.661 39.0741 111.756 38.4396 111.756ZM38.6953 110.25C39.3582 110.25 39.9169 110.12 40.3714 109.859C40.8307 109.599 41.1764 109.263 41.4084 108.851C41.6451 108.439 41.7635 108.006 41.7635 107.551V106.017C41.6925 106.102 41.5362 106.18 41.2947 106.251C41.058 106.318 40.7834 106.377 40.4709 106.429C40.1631 106.476 39.8625 106.519 39.5689 106.557C39.2801 106.59 39.0457 106.618 38.8658 106.642C38.4302 106.699 38.023 106.791 37.6442 106.919C37.2701 107.042 36.9671 107.229 36.7351 107.48C36.5078 107.726 36.3942 108.062 36.3942 108.489C36.3942 109.071 36.6096 109.511 37.0405 109.81C37.4761 110.103 38.0277 110.25 38.6953 110.25ZM54.2262 103.034L52.7205 103.46C52.6258 103.209 52.4862 102.965 52.3015 102.729C52.1216 102.487 51.8754 102.288 51.5629 102.132C51.2504 101.976 50.8503 101.898 50.3626 101.898C49.695 101.898 49.1386 102.052 48.6935 102.359C48.2532 102.662 48.033 103.048 48.033 103.517C48.033 103.934 48.1845 104.263 48.4876 104.504C48.7906 104.746 49.2641 104.947 49.908 105.108L51.5273 105.506C52.5027 105.742 53.2295 106.105 53.7077 106.592C54.186 107.075 54.4251 107.698 54.4251 108.46C54.4251 109.085 54.2451 109.644 53.8853 110.136C53.5302 110.629 53.033 111.017 52.3938 111.301C51.7546 111.585 51.0112 111.727 50.1637 111.727C49.051 111.727 48.1301 111.486 47.4009 111.003C46.6718 110.52 46.2101 109.814 46.016 108.886L47.6069 108.489C47.7584 109.076 48.0449 109.516 48.4663 109.81C48.8924 110.103 49.4487 110.25 50.1353 110.25C50.9165 110.25 51.5368 110.084 51.9961 109.753C52.4601 109.417 52.6921 109.014 52.6921 108.545C52.6921 108.167 52.5595 107.849 52.2944 107.594C52.0292 107.333 51.622 107.139 51.0728 107.011L49.2546 106.585C48.2556 106.348 47.5217 105.982 47.0529 105.484C46.5889 104.982 46.3569 104.355 46.3569 103.602C46.3569 102.987 46.5297 102.442 46.8754 101.969C47.2257 101.495 47.7016 101.124 48.3029 100.854C48.909 100.584 49.5955 100.449 50.3626 100.449C51.4421 100.449 52.2897 100.686 52.9052 101.159C53.5254 101.633 53.9658 102.258 54.2262 103.034ZM64.6754 103.034L63.1697 103.46C63.075 103.209 62.9354 102.965 62.7507 102.729C62.5708 102.487 62.3246 102.288 62.0121 102.132C61.6996 101.976 61.2995 101.898 60.8118 101.898C60.1442 101.898 59.5878 102.052 59.1428 102.359C58.7024 102.662 58.4822 103.048 58.4822 103.517C58.4822 103.934 58.6338 104.263 58.9368 104.504C59.2398 104.746 59.7133 104.947 60.3572 105.108L61.9766 105.506C62.9519 105.742 63.6787 106.105 64.157 106.592C64.6352 107.075 64.8743 107.698 64.8743 108.46C64.8743 109.085 64.6944 109.644 64.3345 110.136C63.9794 110.629 63.4822 111.017 62.843 111.301C62.2038 111.585 61.4605 111.727 60.6129 111.727C59.5002 111.727 58.5793 111.486 57.8501 111.003C57.121 110.52 56.6593 109.814 56.4652 108.886L58.0561 108.489C58.2076 109.076 58.4941 109.516 58.9155 109.81C59.3416 110.103 59.898 110.25 60.5845 110.25C61.3658 110.25 61.986 110.084 62.4453 109.753C62.9093 109.417 63.1413 109.014 63.1413 108.545C63.1413 108.167 63.0088 107.849 62.7436 107.594C62.4785 107.333 62.0713 107.139 61.522 107.011L59.7038 106.585C58.7048 106.348 57.9709 105.982 57.5021 105.484C57.0381 104.982 56.8061 104.355 56.8061 103.602C56.8061 102.987 56.9789 102.442 57.3246 101.969C57.675 101.495 58.1508 101.124 58.7521 100.854C59.3582 100.584 60.0447 100.449 60.8118 100.449C61.8913 100.449 62.7389 100.686 63.3544 101.159C63.9747 101.633 64.415 102.258 64.6754 103.034ZM69.869 111.5L66.5451 100.591H68.3065L70.6644 108.943H70.7781L73.1076 100.591H74.8974L77.1985 108.915H77.3121L79.6701 100.591H81.4315L78.1076 111.5H76.4599L74.0735 103.119H73.9031L71.5167 111.5H69.869ZM87.7081 111.727C86.7232 111.727 85.8591 111.493 85.1158 111.024C84.3771 110.555 83.7995 109.9 83.3828 109.057C82.9709 108.214 82.7649 107.229 82.7649 106.102C82.7649 104.966 82.9709 103.974 83.3828 103.126C83.7995 102.279 84.3771 101.621 85.1158 101.152C85.8591 100.683 86.7232 100.449 87.7081 100.449C88.6929 100.449 89.5547 100.683 90.2933 101.152C91.0367 101.621 91.6143 102.279 92.0263 103.126C92.4429 103.974 92.6513 104.966 92.6513 106.102C92.6513 107.229 92.4429 108.214 92.0263 109.057C91.6143 109.9 91.0367 110.555 90.2933 111.024C89.5547 111.493 88.6929 111.727 87.7081 111.727ZM87.7081 110.222C88.4562 110.222 89.0717 110.03 89.5547 109.646C90.0376 109.263 90.3951 108.759 90.6271 108.134C90.8591 107.509 90.9751 106.831 90.9751 106.102C90.9751 105.373 90.8591 104.694 90.6271 104.064C90.3951 103.434 90.0376 102.925 89.5547 102.537C89.0717 102.149 88.4562 101.955 87.7081 101.955C86.96 101.955 86.3445 102.149 85.8615 102.537C85.3786 102.925 85.0211 103.434 84.7891 104.064C84.5571 104.694 84.4411 105.373 84.4411 106.102C84.4411 106.831 84.5571 107.509 84.7891 108.134C85.0211 108.759 85.3786 109.263 85.8615 109.646C86.3445 110.03 86.96 110.222 87.7081 110.222ZM95.2099 111.5V100.591H96.8292V102.239H96.9428C97.1417 101.699 97.5015 101.261 98.0224 100.925C98.5432 100.589 99.1303 100.42 99.7837 100.42C99.9068 100.42 100.061 100.423 100.245 100.428C100.43 100.432 100.57 100.439 100.664 100.449V102.153C100.608 102.139 100.477 102.118 100.274 102.089C100.075 102.056 99.8642 102.04 99.6417 102.04C99.1114 102.04 98.6379 102.151 98.2212 102.374C97.8093 102.591 97.4826 102.894 97.2411 103.283C97.0044 103.666 96.886 104.104 96.886 104.597V111.5H95.2099ZM106.439 111.727C105.529 111.727 104.727 111.498 104.031 111.038C103.335 110.574 102.79 109.921 102.397 109.078C102.004 108.231 101.808 107.229 101.808 106.074C101.808 104.928 102.004 103.934 102.397 103.091C102.79 102.248 103.337 101.597 104.038 101.138C104.739 100.679 105.548 100.449 106.467 100.449C107.177 100.449 107.738 100.567 108.15 100.804C108.567 101.036 108.884 101.301 109.102 101.599C109.324 101.893 109.497 102.134 109.62 102.324H109.762V96.9545H111.439V111.5H109.819V109.824H109.62C109.497 110.023 109.322 110.274 109.095 110.577C108.868 110.875 108.543 111.143 108.122 111.379C107.7 111.611 107.139 111.727 106.439 111.727ZM106.666 110.222C107.338 110.222 107.906 110.046 108.37 109.696C108.834 109.341 109.187 108.851 109.429 108.226C109.67 107.596 109.791 106.869 109.791 106.045C109.791 105.231 109.672 104.518 109.436 103.908C109.199 103.292 108.849 102.814 108.385 102.473C107.921 102.127 107.348 101.955 106.666 101.955C105.956 101.955 105.364 102.137 104.89 102.501C104.422 102.861 104.069 103.351 103.832 103.972C103.6 104.587 103.484 105.278 103.484 106.045C103.484 106.822 103.602 107.527 103.839 108.162C104.081 108.792 104.436 109.294 104.904 109.668C105.378 110.037 105.965 110.222 106.666 110.222Z" fill="#D1D1D1"/>
<mask id="mask1_86107_6029" style="mask-type:alpha" maskUnits="userSpaceOnUse" x="377" y="92" width="24" height="25">
<rect x="377" y="92.5" width="24" height="24" fill="#D9D9D9"/>
</mask>
<g mask="url(#mask1_86107_6029)">
<path d="M383 114.5C382.45 114.5 381.979 114.304 381.588 113.913C381.196 113.521 381 113.05 381 112.5V102.5C381 101.95 381.196 101.479 381.588 101.088C381.979 100.696 382.45 100.5 383 100.5H384V98.5C384 97.1167 384.488 95.9375 385.463 94.9625C386.438 93.9875 387.617 93.5 389 93.5C390.383 93.5 391.562 93.9875 392.538 94.9625C393.513 95.9375 394 97.1167 394 98.5V100.5H395C395.55 100.5 396.021 100.696 396.413 101.088C396.804 101.479 397 101.95 397 102.5V112.5C397 113.05 396.804 113.521 396.413 113.913C396.021 114.304 395.55 114.5 395 114.5H383ZM383 112.5H395V102.5H383V112.5ZM389 109.5C389.55 109.5 390.021 109.304 390.413 108.913C390.804 108.521 391 108.05 391 107.5C391 106.95 390.804 106.479 390.413 106.088C390.021 105.696 389.55 105.5 389 105.5C388.45 105.5 387.979 105.696 387.588 106.088C387.196 106.479 387 106.95 387 107.5C387 108.05 387.196 108.521 387.588 108.913C387.979 109.304 388.45 109.5 389 109.5ZM386 100.5H392V98.5C392 97.6667 391.708 96.9583 391.125 96.375C390.542 95.7917 389.833 95.5 389 95.5C388.167 95.5 387.458 95.7917 386.875 96.375C386.292 96.9583 386 97.6667 386 98.5V100.5Z" fill="#A8A8A8"/>
</g>
<rect x="43" y="176.5" width="16" height="16" rx="3" stroke="#2A3647" stroke-width="2"/>
<path d="M72.4091 190V178.364H76.3409C77.25 178.364 77.9962 178.519 78.5795 178.83C79.1629 179.136 79.5947 179.559 79.875 180.097C80.1553 180.634 80.2955 181.246 80.2955 181.932C80.2955 182.617 80.1553 183.225 79.875 183.756C79.5947 184.286 79.1648 184.703 78.5852 185.006C78.0057 185.305 77.2652 185.455 76.3636 185.455H73.1818V184.182H76.3182C76.9394 184.182 77.4394 184.091 77.8182 183.909C78.2008 183.727 78.4773 183.47 78.6477 183.136C78.822 182.799 78.9091 182.398 78.9091 181.932C78.9091 181.466 78.822 181.059 78.6477 180.71C78.4735 180.362 78.1951 180.093 77.8125 179.903C77.4299 179.71 76.9242 179.614 76.2955 179.614H73.8182V190H72.4091ZM77.8864 184.773L80.75 190H79.1136L76.2955 184.773H77.8864ZM86.027 190.182C85.1861 190.182 84.4607 189.996 83.8509 189.625C83.2448 189.25 82.777 188.727 82.4474 188.057C82.1217 187.383 81.9588 186.598 81.9588 185.705C81.9588 184.811 82.1217 184.023 82.4474 183.341C82.777 182.655 83.2353 182.121 83.8224 181.739C84.4134 181.352 85.1027 181.159 85.8906 181.159C86.3452 181.159 86.794 181.235 87.2372 181.386C87.6804 181.538 88.0838 181.784 88.4474 182.125C88.8111 182.462 89.1009 182.909 89.3168 183.466C89.5327 184.023 89.6406 184.708 89.6406 185.523V186.091H82.9134V184.932H88.277C88.277 184.439 88.1785 184 87.9815 183.614C87.7884 183.227 87.5118 182.922 87.152 182.699C86.7959 182.475 86.3755 182.364 85.8906 182.364C85.3565 182.364 84.8944 182.496 84.5043 182.761C84.1179 183.023 83.8205 183.364 83.6122 183.784C83.4039 184.205 83.2997 184.655 83.2997 185.136V185.909C83.2997 186.568 83.4134 187.127 83.6406 187.585C83.8717 188.04 84.1918 188.386 84.6009 188.625C85.0099 188.86 85.4853 188.977 86.027 188.977C86.3793 188.977 86.6974 188.928 86.9815 188.83C87.2694 188.727 87.5175 188.576 87.7259 188.375C87.9342 188.17 88.0952 187.917 88.2088 187.614L89.5043 187.977C89.3679 188.417 89.1387 188.803 88.8168 189.136C88.4948 189.466 88.0971 189.723 87.6236 189.909C87.1501 190.091 86.6179 190.182 86.027 190.182ZM91.6804 190V181.273H92.9759V182.636H93.0895C93.2713 182.17 93.5649 181.809 93.9702 181.551C94.3755 181.29 94.8622 181.159 95.4304 181.159C96.0062 181.159 96.4853 181.29 96.8679 181.551C97.2543 181.809 97.5554 182.17 97.7713 182.636H97.8622C98.0857 182.186 98.4209 181.828 98.8679 181.562C99.3149 181.294 99.8509 181.159 100.476 181.159C101.256 181.159 101.894 181.403 102.391 181.892C102.887 182.377 103.135 183.133 103.135 184.159V190H101.794V184.159C101.794 183.515 101.618 183.055 101.266 182.778C100.913 182.502 100.499 182.364 100.021 182.364C99.4077 182.364 98.9323 182.549 98.5952 182.92C98.258 183.288 98.0895 183.754 98.0895 184.318V190H96.7259V184.023C96.7259 183.527 96.5649 183.127 96.2429 182.824C95.9209 182.517 95.5062 182.364 94.9986 182.364C94.6501 182.364 94.3243 182.456 94.0213 182.642C93.7221 182.828 93.4796 183.085 93.294 183.415C93.1122 183.741 93.0213 184.117 93.0213 184.545V190H91.6804ZM109.246 190.182C108.405 190.182 107.679 189.996 107.07 189.625C106.464 189.25 105.996 188.727 105.666 188.057C105.34 187.383 105.178 186.598 105.178 185.705C105.178 184.811 105.34 184.023 105.666 183.341C105.996 182.655 106.454 182.121 107.041 181.739C107.632 181.352 108.321 181.159 109.109 181.159C109.564 181.159 110.013 181.235 110.456 181.386C110.899 181.538 111.303 181.784 111.666 182.125C112.03 182.462 112.32 182.909 112.536 183.466C112.751 184.023 112.859 184.708 112.859 185.523V186.091H106.132V184.932H111.496C111.496 184.439 111.397 184 111.2 183.614C111.007 183.227 110.731 182.922 110.371 182.699C110.015 182.475 109.594 182.364 109.109 182.364C108.575 182.364 108.113 182.496 107.723 182.761C107.337 183.023 107.039 183.364 106.831 183.784C106.623 184.205 106.518 184.655 106.518 185.136V185.909C106.518 186.568 106.632 187.127 106.859 187.585C107.09 188.04 107.411 188.386 107.82 188.625C108.229 188.86 108.704 188.977 109.246 188.977C109.598 188.977 109.916 188.928 110.2 188.83C110.488 188.727 110.736 188.576 110.945 188.375C111.153 188.17 111.314 187.917 111.428 187.614L112.723 187.977C112.587 188.417 112.357 188.803 112.036 189.136C111.714 189.466 111.316 189.723 110.842 189.909C110.369 190.091 109.837 190.182 109.246 190.182ZM114.899 190V181.273H116.195V182.636H116.308C116.49 182.17 116.784 181.809 117.189 181.551C117.594 181.29 118.081 181.159 118.649 181.159C119.225 181.159 119.704 181.29 120.087 181.551C120.473 181.809 120.774 182.17 120.99 182.636H121.081C121.304 182.186 121.64 181.828 122.087 181.562C122.534 181.294 123.07 181.159 123.695 181.159C124.475 181.159 125.113 181.403 125.609 181.892C126.106 182.377 126.354 183.133 126.354 184.159V190H125.013V184.159C125.013 183.515 124.837 183.055 124.484 182.778C124.132 182.502 123.717 182.364 123.24 182.364C122.626 182.364 122.151 182.549 121.814 182.92C121.477 183.288 121.308 183.754 121.308 184.318V190H119.945V184.023C119.945 183.527 119.784 183.127 119.462 182.824C119.14 182.517 118.725 182.364 118.217 182.364C117.869 182.364 117.543 182.456 117.24 182.642C116.941 182.828 116.698 183.085 116.513 183.415C116.331 183.741 116.24 184.117 116.24 184.545V190H114.899ZM128.987 190V178.364H130.328V182.659H130.442C130.54 182.508 130.677 182.314 130.851 182.08C131.029 181.841 131.283 181.629 131.612 181.443C131.946 181.254 132.396 181.159 132.964 181.159C133.699 181.159 134.347 181.343 134.908 181.71C135.468 182.078 135.906 182.598 136.22 183.273C136.535 183.947 136.692 184.742 136.692 185.659C136.692 186.583 136.535 187.384 136.22 188.062C135.906 188.737 135.47 189.259 134.913 189.631C134.357 189.998 133.714 190.182 132.987 190.182C132.427 190.182 131.978 190.089 131.641 189.903C131.304 189.714 131.044 189.5 130.862 189.261C130.68 189.019 130.54 188.818 130.442 188.659H130.283V190H128.987ZM130.305 185.636C130.305 186.295 130.402 186.877 130.595 187.381C130.788 187.881 131.071 188.273 131.442 188.557C131.813 188.837 132.268 188.977 132.805 188.977C133.366 188.977 133.834 188.83 134.209 188.534C134.588 188.235 134.872 187.833 135.061 187.33C135.254 186.822 135.351 186.258 135.351 185.636C135.351 185.023 135.256 184.47 135.067 183.977C134.881 183.481 134.599 183.089 134.22 182.801C133.845 182.509 133.374 182.364 132.805 182.364C132.26 182.364 131.802 182.502 131.43 182.778C131.059 183.051 130.779 183.434 130.589 183.926C130.4 184.415 130.305 184.985 130.305 185.636ZM142.402 190.182C141.561 190.182 140.836 189.996 140.226 189.625C139.62 189.25 139.152 188.727 138.822 188.057C138.497 187.383 138.334 186.598 138.334 185.705C138.334 184.811 138.497 184.023 138.822 183.341C139.152 182.655 139.61 182.121 140.197 181.739C140.788 181.352 141.478 181.159 142.266 181.159C142.72 181.159 143.169 181.235 143.612 181.386C144.055 181.538 144.459 181.784 144.822 182.125C145.186 182.462 145.476 182.909 145.692 183.466C145.908 184.023 146.016 184.708 146.016 185.523V186.091H139.288V184.932H144.652C144.652 184.439 144.554 184 144.357 183.614C144.163 183.227 143.887 182.922 143.527 182.699C143.171 182.475 142.75 182.364 142.266 182.364C141.732 182.364 141.269 182.496 140.879 182.761C140.493 183.023 140.196 183.364 139.987 183.784C139.779 184.205 139.675 184.655 139.675 185.136V185.909C139.675 186.568 139.788 187.127 140.016 187.585C140.247 188.04 140.567 188.386 140.976 188.625C141.385 188.86 141.86 188.977 142.402 188.977C142.754 188.977 143.072 188.928 143.357 188.83C143.644 188.727 143.893 188.576 144.101 188.375C144.309 188.17 144.47 187.917 144.584 187.614L145.879 187.977C145.743 188.417 145.514 188.803 145.192 189.136C144.87 189.466 144.472 189.723 143.999 189.909C143.525 190.091 142.993 190.182 142.402 190.182ZM148.055 190V181.273H149.351V182.591H149.442C149.601 182.159 149.889 181.809 150.305 181.54C150.722 181.271 151.192 181.136 151.714 181.136C151.813 181.136 151.936 181.138 152.084 181.142C152.232 181.146 152.343 181.152 152.419 181.159V182.523C152.374 182.511 152.269 182.494 152.107 182.472C151.947 182.445 151.779 182.432 151.601 182.432C151.177 182.432 150.798 182.521 150.464 182.699C150.135 182.873 149.874 183.116 149.68 183.426C149.491 183.733 149.396 184.083 149.396 184.477V190H148.055ZM158.509 190V181.273H159.804V182.636H159.918C160.099 182.17 160.393 181.809 160.798 181.551C161.204 181.29 161.69 181.159 162.259 181.159C162.834 181.159 163.313 181.29 163.696 181.551C164.082 181.809 164.384 182.17 164.599 182.636H164.69C164.914 182.186 165.249 181.828 165.696 181.562C166.143 181.294 166.679 181.159 167.304 181.159C168.084 181.159 168.723 181.403 169.219 181.892C169.715 182.377 169.963 183.133 169.963 184.159V190H168.622V184.159C168.622 183.515 168.446 183.055 168.094 182.778C167.741 182.502 167.327 182.364 166.849 182.364C166.236 182.364 165.76 182.549 165.423 182.92C165.086 183.288 164.918 183.754 164.918 184.318V190H163.554V184.023C163.554 183.527 163.393 183.127 163.071 182.824C162.749 182.517 162.334 182.364 161.827 182.364C161.478 182.364 161.152 182.456 160.849 182.642C160.55 182.828 160.308 183.085 160.122 183.415C159.94 183.741 159.849 184.117 159.849 184.545V190H158.509ZM176.074 190.182C175.233 190.182 174.508 189.996 173.898 189.625C173.292 189.25 172.824 188.727 172.494 188.057C172.169 187.383 172.006 186.598 172.006 185.705C172.006 184.811 172.169 184.023 172.494 183.341C172.824 182.655 173.282 182.121 173.869 181.739C174.46 181.352 175.15 181.159 175.938 181.159C176.392 181.159 176.841 181.235 177.284 181.386C177.727 181.538 178.131 181.784 178.494 182.125C178.858 182.462 179.148 182.909 179.364 183.466C179.58 184.023 179.688 184.708 179.688 185.523V186.091H172.96V184.932H178.324C178.324 184.439 178.225 184 178.028 183.614C177.835 183.227 177.559 182.922 177.199 182.699C176.843 182.475 176.422 182.364 175.938 182.364C175.403 182.364 174.941 182.496 174.551 182.761C174.165 183.023 173.867 183.364 173.659 183.784C173.451 184.205 173.347 184.655 173.347 185.136V185.909C173.347 186.568 173.46 187.127 173.688 187.585C173.919 188.04 174.239 188.386 174.648 188.625C175.057 188.86 175.532 188.977 176.074 188.977C176.426 188.977 176.744 188.928 177.028 188.83C177.316 188.727 177.564 188.576 177.773 188.375C177.981 188.17 178.142 187.917 178.256 187.614L179.551 187.977C179.415 188.417 179.186 188.803 178.864 189.136C178.542 189.466 178.144 189.723 177.67 189.909C177.197 190.091 176.665 190.182 176.074 190.182Z" fill="black"/>
</svg>
