<svg width="177" height="49" viewBox="0 0 177 49" fill="none" xmlns="http://www.w3.org/2000/svg">
<rect x="0.5" y="1" width="176" height="47" rx="7.5" fill="white"/>
<rect x="0.5" y="1" width="176" height="47" rx="7.5" stroke="#2A3647"/>
<path d="M35.4545 21.6641C35.3501 21.3011 35.2035 20.9805 35.0146 20.7021C34.8256 20.4187 34.5945 20.18 34.321 19.9862C34.0526 19.7873 33.7443 19.6357 33.3963 19.5312C33.0533 19.4268 32.6729 19.3746 32.2553 19.3746C31.4748 19.3746 30.7887 19.5685 30.1971 19.9563C29.6104 20.3441 29.1531 20.9084 28.8249 21.6491C28.4968 22.3849 28.3327 23.2848 28.3327 24.3487C28.3327 25.4126 28.4943 26.3175 28.8175 27.0632C29.1406 27.8089 29.598 28.3782 30.1896 28.771C30.7812 29.1587 31.4798 29.3526 32.2852 29.3526C33.016 29.3526 33.6399 29.2234 34.157 28.9648C34.679 28.7013 35.0767 28.331 35.3501 27.8537C35.6286 27.3764 35.7678 26.8121 35.7678 26.1609L36.424 26.2578H32.4865V23.8267H38.8775V25.7507C38.8775 27.093 38.5941 28.2464 38.0273 29.2109C37.4606 30.1705 36.68 30.9112 35.6857 31.4332C34.6914 31.9503 33.5529 32.2088 32.2702 32.2088C30.8384 32.2088 29.5806 31.8931 28.4968 31.2617C27.413 30.6254 26.5678 29.723 25.9613 28.5547C25.3597 27.3814 25.0589 25.9893 25.0589 24.3786C25.0589 23.1406 25.2379 22.0369 25.5959 21.0675C25.9588 20.093 26.4659 19.2678 27.1172 18.5916C27.7685 17.9155 28.5266 17.4009 29.3917 17.0479C30.2567 16.695 31.1939 16.5185 32.2031 16.5185C33.0682 16.5185 33.8736 16.6452 34.6193 16.8988C35.3651 17.1474 36.0263 17.5004 36.603 17.9577C37.1847 18.4151 37.6594 18.9595 38.0273 19.5909C38.3952 20.2173 38.6314 20.9084 38.7358 21.6641H35.4545ZM48.5889 27.1229V20.5455H51.7657V32H48.7156V29.9194H48.5963C48.3378 30.5906 47.9078 31.13 47.3062 31.5376C46.7096 31.9453 45.9813 32.1491 45.1212 32.1491C44.3556 32.1491 43.6819 31.9751 43.1002 31.6271C42.5186 31.2791 42.0637 30.7844 41.7355 30.1431C41.4124 29.5018 41.2483 28.7337 41.2433 27.8388V20.5455H44.4202V27.272C44.4252 27.9482 44.6066 28.4826 44.9646 28.8754C45.3225 29.2681 45.8023 29.4645 46.4039 29.4645C46.7867 29.4645 47.1446 29.3775 47.4777 29.2035C47.8108 29.0245 48.0793 28.761 48.2831 28.413C48.4919 28.065 48.5938 27.6349 48.5889 27.1229ZM59.527 32.2237C58.3487 32.2237 57.3345 31.9851 56.4844 31.5078C55.6392 31.0256 54.9879 30.3445 54.5305 29.4645C54.0732 28.5795 53.8445 27.533 53.8445 26.3249C53.8445 25.1467 54.0732 24.1126 54.5305 23.2227C54.9879 22.3327 55.6317 21.6392 56.462 21.142C57.2972 20.6449 58.2766 20.3963 59.4002 20.3963C60.1559 20.3963 60.8594 20.5181 61.5107 20.7617C62.1669 21.0004 62.7386 21.3608 63.2259 21.843C63.718 22.3253 64.1009 22.9318 64.3743 23.6626C64.6477 24.3885 64.7844 25.2386 64.7844 26.2131V27.0856H55.1122V25.1168H61.794C61.794 24.6594 61.6946 24.2543 61.4957 23.9013C61.2969 23.5483 61.021 23.2724 60.668 23.0735C60.32 22.8697 59.9148 22.7678 59.4524 22.7678C58.9702 22.7678 58.5426 22.8796 58.1697 23.1033C57.8018 23.3221 57.5135 23.6179 57.3047 23.9908C57.0959 24.3587 56.989 24.7688 56.984 25.2212V27.093C56.984 27.6598 57.0884 28.1495 57.2972 28.5621C57.511 28.9748 57.8118 29.293 58.1996 29.5167C58.5874 29.7404 59.0472 29.8523 59.5792 29.8523C59.9322 29.8523 60.2553 29.8026 60.5487 29.7031C60.842 29.6037 61.093 29.4545 61.3018 29.2557C61.5107 29.0568 61.6697 28.8132 61.7791 28.5249L64.7173 28.7188C64.5682 29.4247 64.2624 30.0412 63.8001 30.5682C63.3427 31.0902 62.7511 31.4979 62.0252 31.7912C61.3043 32.0795 60.4716 32.2237 59.527 32.2237ZM76.3881 23.8118L73.4798 23.9908C73.43 23.7422 73.3232 23.5185 73.1591 23.3196C72.995 23.1158 72.7788 22.9542 72.5103 22.8349C72.2468 22.7106 71.9311 22.6484 71.5632 22.6484C71.071 22.6484 70.6559 22.7528 70.3178 22.9616C69.9798 23.1655 69.8107 23.4389 69.8107 23.782C69.8107 24.0554 69.9201 24.2866 70.1388 24.4755C70.3576 24.6644 70.733 24.8161 71.2649 24.9304L73.3381 25.348C74.4517 25.5767 75.282 25.9446 75.8288 26.4517C76.3757 26.9588 76.6491 27.625 76.6491 28.4503C76.6491 29.201 76.4279 29.8597 75.9854 30.4265C75.5479 30.9933 74.9464 31.4357 74.1808 31.7539C73.4201 32.0671 72.5426 32.2237 71.5483 32.2237C70.032 32.2237 68.8239 31.908 67.924 31.2766C67.0291 30.6403 66.5046 29.7752 66.3505 28.6815L69.4751 28.5174C69.5696 28.9798 69.7983 29.3327 70.1612 29.5763C70.5241 29.815 70.989 29.9343 71.5558 29.9343C72.1126 29.9343 72.56 29.8274 72.8981 29.6136C73.2411 29.3949 73.4151 29.114 73.4201 28.771C73.4151 28.4826 73.2933 28.2464 73.0547 28.0625C72.8161 27.8736 72.4482 27.7294 71.951 27.63L69.9673 27.2347C68.8487 27.011 68.016 26.6232 67.4691 26.0714C66.9272 25.5195 66.6562 24.8161 66.6562 23.9609C66.6562 23.2251 66.8551 22.5913 67.2528 22.0593C67.6555 21.5273 68.2198 21.1172 68.9457 20.8288C69.6765 20.5405 70.5316 20.3963 71.511 20.3963C72.9577 20.3963 74.0962 20.7021 74.9265 21.3136C75.7617 21.9251 76.2489 22.7578 76.3881 23.8118ZM84.7423 20.5455V22.9318H77.8442V20.5455H84.7423ZM79.4102 17.8011H82.5871V28.4801C82.5871 28.7734 82.6318 29.0021 82.7213 29.1662C82.8108 29.3253 82.9351 29.4371 83.0942 29.5018C83.2583 29.5664 83.4472 29.5987 83.661 29.5987C83.8101 29.5987 83.9593 29.5863 84.1084 29.5614C84.2575 29.5316 84.3719 29.5092 84.4514 29.4943L84.9511 31.8583C84.792 31.908 84.5683 31.9652 84.2799 32.0298C83.9916 32.0994 83.6411 32.1417 83.2284 32.1566C82.4628 32.1864 81.7916 32.0845 81.2149 31.8509C80.6432 31.6172 80.1982 31.2543 79.8801 30.7621C79.5619 30.2699 79.4053 29.6484 79.4102 28.8977V17.8011ZM91.7317 32V16.7273H94.9608V29.3377H101.508V32H91.7317ZM108.763 32.2237C107.604 32.2237 106.602 31.9776 105.757 31.4854C104.917 30.9883 104.268 30.2972 103.811 29.4123C103.353 28.5224 103.125 27.4908 103.125 26.3175C103.125 25.1342 103.353 24.1001 103.811 23.2152C104.268 22.3253 104.917 21.6342 105.757 21.142C106.602 20.6449 107.604 20.3963 108.763 20.3963C109.921 20.3963 110.92 20.6449 111.76 21.142C112.606 21.6342 113.257 22.3253 113.714 23.2152C114.172 24.1001 114.4 25.1342 114.4 26.3175C114.4 27.4908 114.172 28.5224 113.714 29.4123C113.257 30.2972 112.606 30.9883 111.76 31.4854C110.92 31.9776 109.921 32.2237 108.763 32.2237ZM108.777 29.7628C109.304 29.7628 109.744 29.6136 110.097 29.3153C110.45 29.0121 110.716 28.5994 110.895 28.0774C111.079 27.5554 111.171 26.9613 111.171 26.2951C111.171 25.6289 111.079 25.0348 110.895 24.5128C110.716 23.9908 110.45 23.5781 110.097 23.2749C109.744 22.9716 109.304 22.82 108.777 22.82C108.245 22.82 107.798 22.9716 107.435 23.2749C107.077 23.5781 106.806 23.9908 106.622 24.5128C106.443 25.0348 106.354 25.6289 106.354 26.2951C106.354 26.9613 106.443 27.5554 106.622 28.0774C106.806 28.5994 107.077 29.0121 107.435 29.3153C107.798 29.6136 108.245 29.7628 108.777 29.7628ZM121.627 36.5341C120.597 36.5341 119.715 36.3924 118.979 36.109C118.248 35.8306 117.667 35.4503 117.234 34.968C116.802 34.4858 116.521 33.9439 116.391 33.3423L119.33 32.9471C119.419 33.1758 119.561 33.3896 119.755 33.5884C119.949 33.7873 120.205 33.9464 120.523 34.0657C120.846 34.19 121.239 34.2521 121.701 34.2521C122.392 34.2521 122.961 34.0831 123.409 33.745C123.861 33.4119 124.087 32.8526 124.087 32.0671V29.9716H123.953C123.814 30.2898 123.605 30.5906 123.327 30.8739C123.048 31.1573 122.69 31.3885 122.253 31.5675C121.815 31.7464 121.293 31.8359 120.687 31.8359C119.827 31.8359 119.044 31.6371 118.338 31.2393C117.637 30.8366 117.078 30.2227 116.66 29.3974C116.247 28.5671 116.041 27.5181 116.041 26.2504C116.041 24.9528 116.252 23.869 116.675 22.9989C117.097 22.1289 117.659 21.4776 118.36 21.0451C119.066 20.6126 119.839 20.3963 120.679 20.3963C121.321 20.3963 121.858 20.5057 122.29 20.7244C122.723 20.9382 123.071 21.2067 123.334 21.5298C123.603 21.848 123.809 22.1612 123.953 22.4695H124.073V20.5455H127.227V32.1119C127.227 33.0863 126.988 33.9016 126.511 34.5579C126.034 35.2141 125.373 35.7063 124.527 36.0344C123.687 36.3675 122.72 36.5341 121.627 36.5341ZM121.694 29.4496C122.206 29.4496 122.638 29.3228 122.991 29.0692C123.349 28.8107 123.623 28.4428 123.812 27.9656C124.005 27.4833 124.102 26.9066 124.102 26.2354C124.102 25.5643 124.008 24.9826 123.819 24.4904C123.63 23.9933 123.357 23.608 122.999 23.3345C122.641 23.0611 122.206 22.9244 121.694 22.9244C121.172 22.9244 120.732 23.0661 120.374 23.3494C120.016 23.6278 119.745 24.0156 119.561 24.5128C119.377 25.0099 119.285 25.5842 119.285 26.2354C119.285 26.8967 119.377 27.4684 119.561 27.9506C119.75 28.4279 120.021 28.7983 120.374 29.0618C120.732 29.3203 121.172 29.4496 121.694 29.4496ZM134.615 32V20.5455H137.792V32H134.615ZM136.211 19.0689C135.739 19.0689 135.334 18.9123 134.996 18.5991C134.663 18.2809 134.496 17.9006 134.496 17.4581C134.496 17.0206 134.663 16.6452 134.996 16.332C135.334 16.0138 135.739 15.8548 136.211 15.8548C136.684 15.8548 137.086 16.0138 137.419 16.332C137.757 16.6452 137.926 17.0206 137.926 17.4581C137.926 17.9006 137.757 18.2809 137.419 18.5991C137.086 18.9123 136.684 19.0689 136.211 19.0689ZM143.514 25.3778V32H140.337V20.5455H143.365V22.5664H143.499C143.753 21.9002 144.178 21.3732 144.774 20.9854C145.371 20.5927 146.094 20.3963 146.944 20.3963C147.74 20.3963 148.433 20.5703 149.025 20.9183C149.617 21.2663 150.076 21.7635 150.405 22.4098C150.733 23.0511 150.897 23.8168 150.897 24.7067V32H147.72V25.2734C147.725 24.5724 147.546 24.0256 147.183 23.6328C146.82 23.2351 146.32 23.0362 145.684 23.0362C145.256 23.0362 144.879 23.1282 144.551 23.3121C144.227 23.4961 143.974 23.7646 143.79 24.1175C143.611 24.4656 143.519 24.8857 143.514 25.3778Z" fill="#2A3647"/>
</svg>
