<svg width="151" height="16" viewBox="0 0 151 16" fill="none" xmlns="http://www.w3.org/2000/svg">
<path d="M12.2955 0.954545V15.5H10.5909L2.66477 4.07955H2.52273V15.5H0.761364V0.954545H2.46591L10.4205 12.4034H10.5625V0.954545H12.2955ZM20.0245 15.7273C19.0397 15.7273 18.1755 15.4929 17.4322 15.0241C16.6935 14.5554 16.1159 13.8996 15.6992 13.0568C15.2873 12.214 15.0813 11.2292 15.0813 10.1023C15.0813 8.96591 15.2873 7.97396 15.6992 7.12642C16.1159 6.27888 16.6935 5.62074 17.4322 5.15199C18.1755 4.68324 19.0397 4.44886 20.0245 4.44886C21.0094 4.44886 21.8711 4.68324 22.6097 5.15199C23.3531 5.62074 23.9308 6.27888 24.3427 7.12642C24.7594 7.97396 24.9677 8.96591 24.9677 10.1023C24.9677 11.2292 24.7594 12.214 24.3427 13.0568C23.9308 13.8996 23.3531 14.5554 22.6097 15.0241C21.8711 15.4929 21.0094 15.7273 20.0245 15.7273ZM20.0245 14.2216C20.7726 14.2216 21.3881 14.0298 21.8711 13.6463C22.354 13.2628 22.7115 12.7585 22.9435 12.1335C23.1755 11.5085 23.2915 10.8314 23.2915 10.1023C23.2915 9.37311 23.1755 8.69366 22.9435 8.06392C22.7115 7.43419 22.354 6.92519 21.8711 6.53693C21.3881 6.14867 20.7726 5.95455 20.0245 5.95455C19.2764 5.95455 18.6609 6.14867 18.1779 6.53693C17.695 6.92519 17.3375 7.43419 17.1055 8.06392C16.8735 8.69366 16.7575 9.37311 16.7575 10.1023C16.7575 10.8314 16.8735 11.5085 17.1055 12.1335C17.3375 12.7585 17.695 13.2628 18.1779 13.6463C18.6609 14.0298 19.2764 14.2216 20.0245 14.2216ZM32.2706 4.59091V6.01136H26.6172V4.59091H32.2706ZM28.2649 1.97727H29.9411V12.375C29.9411 12.8485 30.0097 13.2036 30.147 13.4403C30.2891 13.6723 30.469 13.8286 30.6868 13.9091C30.9093 13.9848 31.1437 14.0227 31.3899 14.0227C31.5746 14.0227 31.7261 14.0133 31.8445 13.9943C31.9628 13.9706 32.0575 13.9517 32.1286 13.9375L32.4695 15.4432C32.3558 15.4858 32.1972 15.5284 31.9936 15.571C31.79 15.6184 31.532 15.642 31.2195 15.642C30.746 15.642 30.282 15.5402 29.8274 15.3366C29.3776 15.133 29.0036 14.8229 28.7053 14.4062C28.4117 13.9896 28.2649 13.464 28.2649 12.8295V1.97727ZM43.6271 15.7557C42.9358 15.7557 42.3085 15.6255 41.745 15.3651C41.1816 15.0999 40.7341 14.7188 40.4027 14.2216C40.0713 13.7197 39.9055 13.1136 39.9055 12.4034C39.9055 11.7784 40.0286 11.2718 40.2749 10.8835C40.5211 10.4905 40.8501 10.1828 41.2621 9.96023C41.674 9.73769 42.1286 9.57197 42.6257 9.46307C43.1276 9.34943 43.6319 9.25947 44.1385 9.19318C44.8014 9.10795 45.3388 9.04403 45.7507 9.00142C46.1674 8.95407 46.4704 8.87595 46.6598 8.76705C46.8539 8.65814 46.951 8.46875 46.951 8.19886V8.14205C46.951 7.44129 46.7592 6.89678 46.3757 6.50852C45.9969 6.12027 45.4216 5.92614 44.6499 5.92614C43.8497 5.92614 43.2223 6.10133 42.7678 6.4517C42.3132 6.80208 41.9936 7.17614 41.8089 7.57386L40.218 7.00568C40.5021 6.3428 40.8809 5.8267 41.3544 5.45739C41.8326 5.08333 42.3535 4.82292 42.9169 4.67614C43.4851 4.52462 44.0438 4.44886 44.593 4.44886C44.9434 4.44886 45.3459 4.49148 45.8004 4.5767C46.2597 4.6572 46.7024 4.82528 47.1286 5.08097C47.5594 5.33665 47.9169 5.72254 48.201 6.23864C48.4851 6.75473 48.6271 7.44602 48.6271 8.3125V15.5H46.951V14.0227H46.8658C46.7521 14.2595 46.5627 14.5128 46.2976 14.7827C46.0324 15.0526 45.6797 15.2822 45.2393 15.4716C44.799 15.661 44.2616 15.7557 43.6271 15.7557ZM43.8828 14.25C44.5457 14.25 45.1044 14.1198 45.5589 13.8594C46.0182 13.599 46.3639 13.2628 46.5959 12.8509C46.8326 12.4389 46.951 12.0057 46.951 11.5511V10.017C46.88 10.1023 46.7237 10.1804 46.4822 10.2514C46.2455 10.3177 45.9709 10.3769 45.6584 10.429C45.3506 10.4763 45.05 10.5189 44.7564 10.5568C44.4676 10.59 44.2332 10.6184 44.0533 10.642C43.6177 10.6989 43.2105 10.7912 42.8317 10.919C42.4576 11.0421 42.1546 11.2292 41.9226 11.4801C41.6953 11.7263 41.5817 12.0625 41.5817 12.4886C41.5817 13.071 41.7971 13.5114 42.228 13.8097C42.6636 14.1032 43.2152 14.25 43.8828 14.25ZM63.1069 0.954545H64.8683V11.3523C64.8683 12.2803 64.6978 13.0687 64.3569 13.7173C64.016 14.366 63.5354 14.8584 62.9151 15.1946C62.2949 15.5308 61.5633 15.6989 60.7205 15.6989C59.9251 15.6989 59.2172 15.5545 58.5969 15.2656C57.9767 14.9721 57.489 14.5554 57.1339 14.0156C56.7788 13.4759 56.6012 12.8343 56.6012 12.0909H58.3342C58.3342 12.5028 58.436 12.8627 58.6396 13.1705C58.8479 13.4735 59.132 13.7102 59.4918 13.8807C59.8517 14.0511 60.2612 14.1364 60.7205 14.1364C61.2272 14.1364 61.658 14.0298 62.0131 13.8168C62.3683 13.6037 62.6381 13.2912 62.8228 12.8793C63.0122 12.4626 63.1069 11.9536 63.1069 11.3523V0.954545ZM72.6026 15.7273C71.6178 15.7273 70.7537 15.4929 70.0103 15.0241C69.2717 14.5554 68.694 13.8996 68.2773 13.0568C67.8654 12.214 67.6594 11.2292 67.6594 10.1023C67.6594 8.96591 67.8654 7.97396 68.2773 7.12642C68.694 6.27888 69.2717 5.62074 70.0103 5.15199C70.7537 4.68324 71.6178 4.44886 72.6026 4.44886C73.5875 4.44886 74.4492 4.68324 75.1879 5.15199C75.9312 5.62074 76.5089 6.27888 76.9208 7.12642C77.3375 7.97396 77.5458 8.96591 77.5458 10.1023C77.5458 11.2292 77.3375 12.214 76.9208 13.0568C76.5089 13.8996 75.9312 14.5554 75.1879 15.0241C74.4492 15.4929 73.5875 15.7273 72.6026 15.7273ZM72.6026 14.2216C73.3507 14.2216 73.9663 14.0298 74.4492 13.6463C74.9322 13.2628 75.2897 12.7585 75.5217 12.1335C75.7537 11.5085 75.8697 10.8314 75.8697 10.1023C75.8697 9.37311 75.7537 8.69366 75.5217 8.06392C75.2897 7.43419 74.9322 6.92519 74.4492 6.53693C73.9663 6.14867 73.3507 5.95455 72.6026 5.95455C71.8545 5.95455 71.239 6.14867 70.756 6.53693C70.2731 6.92519 69.9156 7.43419 69.6836 8.06392C69.4516 8.69366 69.3356 9.37311 69.3356 10.1023C69.3356 10.8314 69.4516 11.5085 69.6836 12.1335C69.9156 12.7585 70.2731 13.2628 70.756 13.6463C71.239 14.0298 71.8545 14.2216 72.6026 14.2216ZM80.1044 15.5V4.59091H81.7805V15.5H80.1044ZM80.9567 2.77273C80.63 2.77273 80.3482 2.66146 80.1115 2.43892C79.8795 2.21638 79.7635 1.94886 79.7635 1.63636C79.7635 1.32386 79.8795 1.05634 80.1115 0.833806C80.3482 0.611269 80.63 0.5 80.9567 0.5C81.2834 0.5 81.5627 0.611269 81.7947 0.833806C82.0315 1.05634 82.1499 1.32386 82.1499 1.63636C82.1499 1.94886 82.0315 2.21638 81.7947 2.43892C81.5627 2.66146 81.2834 2.77273 80.9567 2.77273ZM86.5266 8.9375V15.5H84.8505V4.59091H86.4698V6.29545H86.6119C86.8675 5.74148 87.2558 5.2964 87.7766 4.96023C88.2975 4.61932 88.9698 4.44886 89.7937 4.44886C90.5323 4.44886 91.1786 4.60038 91.7326 4.90341C92.2866 5.2017 92.7174 5.65625 93.0252 6.26705C93.333 6.87311 93.4869 7.64015 93.4869 8.56818V15.5H91.8107V8.68182C91.8107 7.82481 91.5882 7.1572 91.1431 6.67898C90.698 6.19602 90.0872 5.95455 89.3107 5.95455C88.7757 5.95455 88.2975 6.07055 87.8761 6.30256C87.4594 6.53456 87.1303 6.87311 86.8888 7.31818C86.6474 7.76326 86.5266 8.30303 86.5266 8.9375ZM109.05 11.0398V4.59091H110.726V15.5H109.05V13.6534H108.936C108.68 14.2074 108.283 14.6785 107.743 15.0668C107.203 15.4503 106.521 15.642 105.697 15.642C105.016 15.642 104.41 15.4929 103.879 15.1946C103.349 14.8916 102.932 14.437 102.629 13.831C102.326 13.2202 102.175 12.4508 102.175 11.5227V4.59091H103.851V11.4091C103.851 12.2045 104.073 12.839 104.518 13.3125C104.968 13.786 105.541 14.0227 106.237 14.0227C106.654 14.0227 107.078 13.9162 107.509 13.7031C107.944 13.4901 108.309 13.1634 108.602 12.723C108.901 12.2827 109.05 11.7216 109.05 11.0398ZM121.523 7.03409L120.017 7.46023C119.923 7.20928 119.783 6.96544 119.598 6.72869C119.418 6.48722 119.172 6.28835 118.86 6.1321C118.547 5.97585 118.147 5.89773 117.659 5.89773C116.992 5.89773 116.435 6.05161 115.99 6.35938C115.55 6.66241 115.33 7.0483 115.33 7.51705C115.33 7.93371 115.481 8.26278 115.784 8.50426C116.087 8.74574 116.561 8.94697 117.205 9.10795L118.824 9.50568C119.8 9.74242 120.526 10.1046 121.005 10.5923C121.483 11.0753 121.722 11.6979 121.722 12.4602C121.722 13.0852 121.542 13.6439 121.182 14.1364C120.827 14.6288 120.33 15.017 119.691 15.3011C119.051 15.5852 118.308 15.7273 117.461 15.7273C116.348 15.7273 115.427 15.4858 114.698 15.0028C113.969 14.5199 113.507 13.8144 113.313 12.8864L114.904 12.4886C115.055 13.0758 115.342 13.5161 115.763 13.8097C116.189 14.1032 116.746 14.25 117.432 14.25C118.213 14.25 118.834 14.0843 119.293 13.7528C119.757 13.4167 119.989 13.0142 119.989 12.5455C119.989 12.1667 119.856 11.8494 119.591 11.5938C119.326 11.3333 118.919 11.1392 118.37 11.0114L116.551 10.5852C115.552 10.3485 114.819 9.98153 114.35 9.48438C113.886 8.98248 113.654 8.35511 113.654 7.60227C113.654 6.98674 113.827 6.44223 114.172 5.96875C114.523 5.49527 114.998 5.12358 115.6 4.85369C116.206 4.58381 116.892 4.44886 117.659 4.44886C118.739 4.44886 119.587 4.68561 120.202 5.15909C120.822 5.63258 121.263 6.25758 121.523 7.03409ZM128.819 15.7273C127.768 15.7273 126.861 15.4953 126.099 15.0312C125.341 14.5625 124.756 13.9091 124.344 13.071C123.937 12.2282 123.734 11.2481 123.734 10.1307C123.734 9.01326 123.937 8.02841 124.344 7.17614C124.756 6.31913 125.329 5.65152 126.063 5.1733C126.802 4.69034 127.664 4.44886 128.648 4.44886C129.217 4.44886 129.778 4.54356 130.332 4.73295C130.886 4.92235 131.39 5.23011 131.844 5.65625C132.299 6.07765 132.661 6.63636 132.931 7.33239C133.201 8.02841 133.336 8.88542 133.336 9.90341V10.6136H124.927V9.16477H131.631C131.631 8.54924 131.508 8 131.262 7.51705C131.021 7.03409 130.675 6.65294 130.225 6.37358C129.78 6.09422 129.254 5.95455 128.648 5.95455C127.981 5.95455 127.403 6.12026 126.915 6.4517C126.433 6.77841 126.061 7.20455 125.8 7.73011C125.54 8.25568 125.41 8.81913 125.41 9.42045V10.3864C125.41 11.2102 125.552 11.9086 125.836 12.4815C126.125 13.0497 126.525 13.483 127.036 13.7812C127.548 14.0748 128.142 14.2216 128.819 14.2216C129.259 14.2216 129.657 14.16 130.012 14.0369C130.372 13.9091 130.682 13.7197 130.942 13.4688C131.203 13.2131 131.404 12.8958 131.546 12.517L133.165 12.9716C132.995 13.5208 132.709 14.0038 132.306 14.4205C131.904 14.8324 131.406 15.1544 130.815 15.3864C130.223 15.6136 129.558 15.7273 128.819 15.7273ZM135.886 15.5V4.59091H137.505V6.23864H137.619C137.817 5.69886 138.177 5.26089 138.698 4.92472C139.219 4.58854 139.806 4.42045 140.46 4.42045C140.583 4.42045 140.737 4.42282 140.921 4.42756C141.106 4.43229 141.246 4.43939 141.34 4.44886V6.15341C141.283 6.1392 141.153 6.1179 140.95 6.08949C140.751 6.05634 140.54 6.03977 140.317 6.03977C139.787 6.03977 139.314 6.15104 138.897 6.37358C138.485 6.59138 138.158 6.89441 137.917 7.28267C137.68 7.66619 137.562 8.10417 137.562 8.59659V15.5H135.886ZM145.515 11.4091V11.3239C145.524 10.4195 145.619 9.69981 145.799 9.16477C145.979 8.62973 146.234 8.1965 146.566 7.86506C146.897 7.53362 147.295 7.22822 147.759 6.94886C148.038 6.77841 148.289 6.57718 148.512 6.34517C148.734 6.10843 148.909 5.83617 149.037 5.52841C149.17 5.22064 149.236 4.87973 149.236 4.50568C149.236 4.04167 149.127 3.6392 148.909 3.2983C148.692 2.95739 148.4 2.6946 148.036 2.50994C147.671 2.32528 147.266 2.23295 146.821 2.23295C146.433 2.23295 146.059 2.31345 145.699 2.47443C145.339 2.63542 145.039 2.88873 144.797 3.23438C144.556 3.58002 144.416 4.0322 144.378 4.59091H142.588C142.626 3.78598 142.835 3.09706 143.213 2.52415C143.597 1.95123 144.101 1.51326 144.726 1.21023C145.356 0.907196 146.054 0.755681 146.821 0.755681C147.655 0.755681 148.379 0.921401 148.995 1.25284C149.615 1.58428 150.093 2.03883 150.429 2.61648C150.77 3.19413 150.941 3.85227 150.941 4.59091C150.941 5.11174 150.86 5.58286 150.699 6.00426C150.543 6.42566 150.316 6.80208 150.017 7.13352C149.724 7.46496 149.369 7.75852 148.952 8.0142C148.535 8.27462 148.202 8.54924 147.951 8.83807C147.7 9.12216 147.517 9.4607 147.404 9.85369C147.29 10.2467 147.229 10.7367 147.219 11.3239V11.4091H145.515ZM146.424 15.6136C146.073 15.6136 145.773 15.4882 145.522 15.2372C145.271 14.9863 145.145 14.6856 145.145 14.3352C145.145 13.9848 145.271 13.6842 145.522 13.4332C145.773 13.1823 146.073 13.0568 146.424 13.0568C146.774 13.0568 147.075 13.1823 147.326 13.4332C147.577 13.6842 147.702 13.9848 147.702 14.3352C147.702 14.5672 147.643 14.7803 147.525 14.9744C147.411 15.1686 147.257 15.3248 147.063 15.4432C146.873 15.5568 146.66 15.6136 146.424 15.6136Z" fill="black"/>
</svg>
