<svg width="108" height="13" viewBox="0 0 108 13" fill="none" xmlns="http://www.w3.org/2000/svg">
<path d="M0.409091 12V0.363636H4.34091C5.25 0.363636 5.99621 0.518939 6.57955 0.829545C7.16288 1.13636 7.5947 1.55871 7.875 2.09659C8.1553 2.63447 8.29545 3.24621 8.29545 3.93182C8.29545 4.61742 8.1553 5.22538 7.875 5.75568C7.5947 6.28598 7.16477 6.70265 6.58523 7.00568C6.00568 7.30492 5.26515 7.45455 4.36364 7.45455H1.18182V6.18182H4.31818C4.93939 6.18182 5.43939 6.09091 5.81818 5.90909C6.20076 5.72727 6.47727 5.4697 6.64773 5.13636C6.82197 4.79924 6.90909 4.39773 6.90909 3.93182C6.90909 3.46591 6.82197 3.05871 6.64773 2.71023C6.47349 2.36174 6.19508 2.0928 5.8125 1.90341C5.42992 1.71023 4.92424 1.61364 4.29545 1.61364H1.81818V12H0.409091ZM5.88636 6.77273L8.75 12H7.11364L4.29545 6.77273H5.88636ZM14.027 12.1818C13.1861 12.1818 12.4607 11.9962 11.8509 11.625C11.2448 11.25 10.777 10.7273 10.4474 10.0568C10.1217 9.38258 9.95881 8.59848 9.95881 7.70455C9.95881 6.81061 10.1217 6.02273 10.4474 5.34091C10.777 4.6553 11.2353 4.12121 11.8224 3.73864C12.4134 3.35227 13.1027 3.15909 13.8906 3.15909C14.3452 3.15909 14.794 3.23485 15.2372 3.38636C15.6804 3.53788 16.0838 3.78409 16.4474 4.125C16.8111 4.46212 17.1009 4.90909 17.3168 5.46591C17.5327 6.02273 17.6406 6.70833 17.6406 7.52273V8.09091H10.9134V6.93182H16.277C16.277 6.43939 16.1785 6 15.9815 5.61364C15.7884 5.22727 15.5118 4.92235 15.152 4.69886C14.7959 4.47538 14.3755 4.36364 13.8906 4.36364C13.3565 4.36364 12.8944 4.49621 12.5043 4.76136C12.1179 5.02273 11.8205 5.36364 11.6122 5.78409C11.4039 6.20455 11.2997 6.6553 11.2997 7.13636V7.90909C11.2997 8.56818 11.4134 9.12689 11.6406 9.58523C11.8717 10.0398 12.1918 10.3864 12.6009 10.625C13.0099 10.8598 13.4853 10.9773 14.027 10.9773C14.3793 10.9773 14.6974 10.928 14.9815 10.8295C15.2694 10.7273 15.5175 10.5758 15.7259 10.375C15.9342 10.1705 16.0952 9.91667 16.2088 9.61364L17.5043 9.97727C17.3679 10.4167 17.1387 10.803 16.8168 11.1364C16.4948 11.4659 16.0971 11.7235 15.6236 11.9091C15.1501 12.0909 14.6179 12.1818 14.027 12.1818ZM19.6804 12V3.27273H20.9759V4.63636H21.0895C21.2713 4.17045 21.5649 3.80871 21.9702 3.55114C22.3755 3.28977 22.8622 3.15909 23.4304 3.15909C24.0062 3.15909 24.4853 3.28977 24.8679 3.55114C25.2543 3.80871 25.5554 4.17045 25.7713 4.63636H25.8622C26.0857 4.18561 26.4209 3.82765 26.8679 3.5625C27.3149 3.29356 27.8509 3.15909 28.4759 3.15909C29.2562 3.15909 29.8944 3.40341 30.3906 3.89205C30.8868 4.37689 31.1349 5.13258 31.1349 6.15909V12H29.794V6.15909C29.794 5.51515 29.6179 5.05492 29.2656 4.77841C28.9134 4.50189 28.4986 4.36364 28.0213 4.36364C27.4077 4.36364 26.9323 4.54924 26.5952 4.92045C26.258 5.28788 26.0895 5.75379 26.0895 6.31818V12H24.7259V6.02273C24.7259 5.52652 24.5649 5.12689 24.2429 4.82386C23.9209 4.51705 23.5062 4.36364 22.9986 4.36364C22.6501 4.36364 22.3243 4.45644 22.0213 4.64205C21.7221 4.82765 21.4796 5.08523 21.294 5.41477C21.1122 5.74053 21.0213 6.11742 21.0213 6.54545V12H19.6804ZM37.2457 12.1818C36.4048 12.1818 35.6795 11.9962 35.0696 11.625C34.4635 11.25 33.9957 10.7273 33.6662 10.0568C33.3404 9.38258 33.1776 8.59848 33.1776 7.70455C33.1776 6.81061 33.3404 6.02273 33.6662 5.34091C33.9957 4.6553 34.4541 4.12121 35.0412 3.73864C35.6321 3.35227 36.3215 3.15909 37.1094 3.15909C37.5639 3.15909 38.0128 3.23485 38.456 3.38636C38.8991 3.53788 39.3026 3.78409 39.6662 4.125C40.0298 4.46212 40.3196 4.90909 40.5355 5.46591C40.7514 6.02273 40.8594 6.70833 40.8594 7.52273V8.09091H34.1321V6.93182H39.4957C39.4957 6.43939 39.3973 6 39.2003 5.61364C39.0071 5.22727 38.7306 4.92235 38.3707 4.69886C38.0147 4.47538 37.5942 4.36364 37.1094 4.36364C36.5753 4.36364 36.1132 4.49621 35.723 4.76136C35.3366 5.02273 35.0393 5.36364 34.831 5.78409C34.6226 6.20455 34.5185 6.6553 34.5185 7.13636V7.90909C34.5185 8.56818 34.6321 9.12689 34.8594 9.58523C35.0904 10.0398 35.4105 10.3864 35.8196 10.625C36.2287 10.8598 36.7041 10.9773 37.2457 10.9773C37.598 10.9773 37.9162 10.928 38.2003 10.8295C38.4882 10.7273 38.7363 10.5758 38.9446 10.375C39.1529 10.1705 39.3139 9.91667 39.4276 9.61364L40.723 9.97727C40.5866 10.4167 40.3575 10.803 40.0355 11.1364C39.7135 11.4659 39.3158 11.7235 38.8423 11.9091C38.3688 12.0909 37.8366 12.1818 37.2457 12.1818ZM42.8991 12V3.27273H44.1946V4.63636H44.3082C44.4901 4.17045 44.7836 3.80871 45.1889 3.55114C45.5942 3.28977 46.081 3.15909 46.6491 3.15909C47.2249 3.15909 47.7041 3.28977 48.0866 3.55114C48.473 3.80871 48.7741 4.17045 48.9901 4.63636H49.081C49.3045 4.18561 49.6397 3.82765 50.0866 3.5625C50.5336 3.29356 51.0696 3.15909 51.6946 3.15909C52.4749 3.15909 53.1132 3.40341 53.6094 3.89205C54.1056 4.37689 54.3537 5.13258 54.3537 6.15909V12H53.0128V6.15909C53.0128 5.51515 52.8366 5.05492 52.4844 4.77841C52.1321 4.50189 51.7173 4.36364 51.2401 4.36364C50.6264 4.36364 50.151 4.54924 49.8139 4.92045C49.4768 5.28788 49.3082 5.75379 49.3082 6.31818V12H47.9446V6.02273C47.9446 5.52652 47.7836 5.12689 47.4616 4.82386C47.1397 4.51705 46.7249 4.36364 46.2173 4.36364C45.8688 4.36364 45.5431 4.45644 45.2401 4.64205C44.9408 4.82765 44.6984 5.08523 44.5128 5.41477C44.331 5.74053 44.2401 6.11742 44.2401 6.54545V12H42.8991ZM56.9872 12V0.363636H58.3281V4.65909H58.4418C58.5402 4.50758 58.6766 4.31439 58.8509 4.07955C59.0289 3.84091 59.2827 3.62879 59.6122 3.44318C59.9455 3.25379 60.3963 3.15909 60.9645 3.15909C61.6993 3.15909 62.3471 3.3428 62.9077 3.71023C63.4683 4.07765 63.9058 4.59848 64.2202 5.27273C64.5346 5.94697 64.6918 6.74242 64.6918 7.65909C64.6918 8.58333 64.5346 9.38447 64.2202 10.0625C63.9058 10.7367 63.4702 11.2595 62.9134 11.6307C62.3565 11.9981 61.7145 12.1818 60.9872 12.1818C60.4266 12.1818 59.9777 12.089 59.6406 11.9034C59.3035 11.714 59.044 11.5 58.8622 11.2614C58.6804 11.0189 58.5402 10.8182 58.4418 10.6591H58.2827V12H56.9872ZM58.3054 7.63636C58.3054 8.29545 58.402 8.87689 58.5952 9.38068C58.7884 9.88068 59.0705 10.2727 59.4418 10.5568C59.813 10.8371 60.2675 10.9773 60.8054 10.9773C61.366 10.9773 61.8338 10.8295 62.2088 10.5341C62.5876 10.2348 62.8717 9.83333 63.0611 9.32955C63.2543 8.82197 63.3509 8.25758 63.3509 7.63636C63.3509 7.02273 63.2562 6.4697 63.0668 5.97727C62.8812 5.48106 62.599 5.08902 62.2202 4.80114C61.8452 4.50947 61.3736 4.36364 60.8054 4.36364C60.2599 4.36364 59.8016 4.50189 59.4304 4.77841C59.0592 5.05114 58.7789 5.43371 58.5895 5.92614C58.4001 6.41477 58.3054 6.98485 58.3054 7.63636ZM70.402 12.1818C69.5611 12.1818 68.8357 11.9962 68.2259 11.625C67.6198 11.25 67.152 10.7273 66.8224 10.0568C66.4967 9.38258 66.3338 8.59848 66.3338 7.70455C66.3338 6.81061 66.4967 6.02273 66.8224 5.34091C67.152 4.6553 67.6103 4.12121 68.1974 3.73864C68.7884 3.35227 69.4777 3.15909 70.2656 3.15909C70.7202 3.15909 71.169 3.23485 71.6122 3.38636C72.0554 3.53788 72.4588 3.78409 72.8224 4.125C73.1861 4.46212 73.4759 4.90909 73.6918 5.46591C73.9077 6.02273 74.0156 6.70833 74.0156 7.52273V8.09091H67.2884V6.93182H72.652C72.652 6.43939 72.5535 6 72.3565 5.61364C72.1634 5.22727 71.8868 4.92235 71.527 4.69886C71.1709 4.47538 70.7505 4.36364 70.2656 4.36364C69.7315 4.36364 69.2694 4.49621 68.8793 4.76136C68.4929 5.02273 68.1955 5.36364 67.9872 5.78409C67.7789 6.20455 67.6747 6.6553 67.6747 7.13636V7.90909C67.6747 8.56818 67.7884 9.12689 68.0156 9.58523C68.2467 10.0398 68.5668 10.3864 68.9759 10.625C69.3849 10.8598 69.8603 10.9773 70.402 10.9773C70.7543 10.9773 71.0724 10.928 71.3565 10.8295C71.6444 10.7273 71.8925 10.5758 72.1009 10.375C72.3092 10.1705 72.4702 9.91667 72.5838 9.61364L73.8793 9.97727C73.7429 10.4167 73.5137 10.803 73.1918 11.1364C72.8698 11.4659 72.4721 11.7235 71.9986 11.9091C71.5251 12.0909 70.9929 12.1818 70.402 12.1818ZM76.0554 12V3.27273H77.3509V4.59091H77.4418C77.6009 4.15909 77.8887 3.80871 78.3054 3.53977C78.7221 3.27083 79.1918 3.13636 79.7145 3.13636C79.813 3.13636 79.9361 3.13826 80.0838 3.14205C80.2315 3.14583 80.3433 3.15152 80.419 3.15909V4.52273C80.3736 4.51136 80.2694 4.49432 80.1065 4.47159C79.9474 4.44508 79.7789 4.43182 79.6009 4.43182C79.1766 4.43182 78.7978 4.52083 78.4645 4.69886C78.1349 4.87311 77.8736 5.11553 77.6804 5.42614C77.491 5.73295 77.3963 6.08333 77.3963 6.47727V12H76.0554ZM86.5085 12V3.27273H87.804V4.63636H87.9176C88.0994 4.17045 88.393 3.80871 88.7983 3.55114C89.2036 3.28977 89.6903 3.15909 90.2585 3.15909C90.8343 3.15909 91.3134 3.28977 91.696 3.55114C92.0824 3.80871 92.3835 4.17045 92.5994 4.63636H92.6903C92.9138 4.18561 93.2491 3.82765 93.696 3.5625C94.143 3.29356 94.679 3.15909 95.304 3.15909C96.0843 3.15909 96.7225 3.40341 97.2188 3.89205C97.715 4.37689 97.9631 5.13258 97.9631 6.15909V12H96.6222V6.15909C96.6222 5.51515 96.446 5.05492 96.0938 4.77841C95.7415 4.50189 95.3267 4.36364 94.8494 4.36364C94.2358 4.36364 93.7604 4.54924 93.4233 4.92045C93.0862 5.28788 92.9176 5.75379 92.9176 6.31818V12H91.554V6.02273C91.554 5.52652 91.393 5.12689 91.071 4.82386C90.7491 4.51705 90.3343 4.36364 89.8267 4.36364C89.4782 4.36364 89.1525 4.45644 88.8494 4.64205C88.5502 4.82765 88.3078 5.08523 88.1222 5.41477C87.9403 5.74053 87.8494 6.11742 87.8494 6.54545V12H86.5085ZM104.074 12.1818C103.233 12.1818 102.508 11.9962 101.898 11.625C101.292 11.25 100.824 10.7273 100.494 10.0568C100.169 9.38258 100.006 8.59848 100.006 7.70455C100.006 6.81061 100.169 6.02273 100.494 5.34091C100.824 4.6553 101.282 4.12121 101.869 3.73864C102.46 3.35227 103.15 3.15909 103.938 3.15909C104.392 3.15909 104.841 3.23485 105.284 3.38636C105.727 3.53788 106.131 3.78409 106.494 4.125C106.858 4.46212 107.148 4.90909 107.364 5.46591C107.58 6.02273 107.688 6.70833 107.688 7.52273V8.09091H100.96V6.93182H106.324C106.324 6.43939 106.225 6 106.028 5.61364C105.835 5.22727 105.559 4.92235 105.199 4.69886C104.843 4.47538 104.422 4.36364 103.938 4.36364C103.403 4.36364 102.941 4.49621 102.551 4.76136C102.165 5.02273 101.867 5.36364 101.659 5.78409C101.451 6.20455 101.347 6.6553 101.347 7.13636V7.90909C101.347 8.56818 101.46 9.12689 101.688 9.58523C101.919 10.0398 102.239 10.3864 102.648 10.625C103.057 10.8598 103.532 10.9773 104.074 10.9773C104.426 10.9773 104.744 10.928 105.028 10.8295C105.316 10.7273 105.564 10.5758 105.773 10.375C105.981 10.1705 106.142 9.91667 106.256 9.61364L107.551 9.97727C107.415 10.4167 107.186 10.803 106.864 11.1364C106.542 11.4659 106.144 11.7235 105.67 11.9091C105.197 12.0909 104.665 12.1818 104.074 12.1818Z" fill="black"/>
</svg>
